<?xml version="1.0" encoding="UTF-8"?>
<svg id="_レイヤー_1" data-name="レイヤー_1" xmlns="http://www.w3.org/2000/svg" version="1.1" xmlns:xlink="http://www.w3.org/1999/xlink" viewBox="0 0 595.28 841.89">
  <!-- Generator: Adobe Illustrator 29.4.0, SVG Export Plug-In . SVG Version: 2.1.0 Build 152)  -->
  <defs>
    <style>
      .st0 {
        fill: #fff;
      }

      .st1 {
        fill: #231815;
        stroke: url(#_名称未設定グラデーション_52);
        stroke-miterlimit: 10;
      }
    </style>
    <linearGradient id="_名称未設定グラデーション_52" data-name="名称未設定グラデーション 52" x1="42.45" y1="420.88" x2="552.48" y2="420.88" gradientUnits="userSpaceOnUse">
      <stop offset=".15" stop-color="#224756"/>
      <stop offset=".85" stop-color="#fff"/>
    </linearGradient>
  </defs>
  <circle class="st0" cx="297.64" cy="420.94" r="302.82"/>
  <path class="st1" d="M473.18,589.93c-.05-9.87-.2-20.88-.87-29.76-1.05-26.35,23.55-49.55,26-55.31,7.5-1.05,13.96-17.27,15.53-25.3,10.82-9.77,16.23-28.96,16.4-31.4,1.74,0,3.66.35,6.28-1.22.17-1.92.87-5.58.7-9.07.87-1.74,4.01-8.2,3.66-12.39,2.44-.52,4.19-.35,6.46-.87.52-2.09.52-15.18-1.22-19.02,1.05-.35,2.79-.52,5.23-1.4,2.97-16.92-5.41-51.29-7.33-54.09,1.92.17,2.27,1.4,4.36.17-.35-2.09-4.36-21.63-13.96-35.07,4.89-19.37,7.15-34.89,6.98-40.83,13.78-30.01,6.98-32.28,3.49-33.67-2.44,3.49-8.37,8.9-10.99,10.47-3.14-5.41,3.84-23.2,3.49-28.26-.52-1.92-7.85-8.55-10.29-10.82-1.4.87-13.78,12.74-16.57,18.49-4.89,3.14-15,9.94-17.1,19.02-18.32,5.06-28.26,25.12-29.49,31.93-8.9,6.11-24.6,31.23-25.82,36.99.35,1.92,1.05,3.49,4.36,6.11-.7,4.71-27.22,29.83-32.1,36.12-5.58,3.49-29.31,16.75-43.27,28.61-15.35,4.89-39.08,34.89-57.92,37.69-30.01,0-86.54,29.31-98.4,43.27-78.16,107.47-128.41,126.32-136.09,133.99-7.68,7.68-15.35,4.89-31.4,20.24,15.53,8.37,41.18-6.46,45.19-8.37,3.84-1.74,12.91-.17,20.59-1.05,3.31-1.57,16.05-9.42,24.95-14.31-.87,4.36,1.57,3.14-1.4,7.33,12.74-5.23,60.19-38.38,79.38-50.95-6.63,35.77-23.82,44.05-28.44,48.68.17,3.81,2.58,13.47-1.15,21.64l-12,2.26M425.21,547.09c.84,17.43,10.51,22.76,13.97,45.87l-27.14,2.42c1.7-18.31,4.26-44.28,4.63-48.29,2.97-3.14.17-1.4,8.55,0ZM380.37,536.97c8.23,16.06,9.22,42.18,7.88,60.53l-69.31,6.17c5.74-8.14,11.64-19.12,16.59-32.15,9.6-30.88,29.14-31.58,44.84-34.55ZM261.03,598.91c-.11,2,.54,7.85-.07,13.8l-32.5,6.13c10.54-6.39,24.58-15.99,32.57-19.93Z"/>
</svg>