<?xml version="1.0" encoding="UTF-8"?>
<svg id="_レイヤー_1" data-name="レイヤー_1" xmlns="http://www.w3.org/2000/svg" version="1.1" viewBox="0 0 595.28 841.89">
  <!-- Generator: Adobe Illustrator 29.4.0, SVG Export Plug-In . SVG Version: 2.1.0 Build 152)  -->
  <defs>
    <style>
      .st0, .st1, .st2, .st3, .st4, .st5, .st6, .st7, .st8, .st9, .st10, .st11, .st12, .st13, .st14, .st15, .st16, .st17, .st18 {
        stroke: #231815;
        stroke-miterlimit: 10;
        stroke-width: .5px;
      }

      .st0, .st19 {
        fill: #e6e6e6;
      }

      .st1 {
        fill: #253b22;
      }

      .st2 {
        fill: #83b17b;
      }

      .st3 {
        fill: #638960;
      }

      .st3, .st9, .st17 {
        opacity: .5;
      }

      .st4 {
        fill: #fff9b1;
      }

      .st5 {
        fill: #fbfbfb;
      }

      .st6 {
        fill: none;
      }

      .st7 {
        fill: #344e32;
      }

      .st8 {
        fill: #fcfdfd;
      }

      .st9 {
        fill: #eff8fe;
      }

      .st10 {
        fill: #6d9669;
      }

      .st11 {
        fill: #597c55;
      }

      .st12 {
        fill: #456443;
      }

      .st13 {
        fill: #faf6b0;
      }

      .st14 {
        fill: #6e965a;
      }

      .st15 {
        fill: #f7f8f8;
      }

      .st16, .st17 {
        fill: #658c61;
      }

      .st18 {
        fill: #fffbc7;
      }
    </style>
  </defs>
  <ellipse class="st19" cx="297.64" cy="420.94" rx="247.5" ry="245.78"/>
  <g>
    <path class="st6" d="M292.66,468.49c0,1.83-13.79,3.3-30.8,3.3s-30.78-1.47-30.78-3.3,13.79-3.3,30.78-3.3,30.8,1.47,30.8,3.3Z"/>
    <path class="st14" d="M458.26,279.61c-6.66,7.21-12.2,23.3-71,24.41,3.33-9.98,12.2-19.41,71-24.41Z"/>
    <path class="st7" d="M182.31,373.35c15.25-3.88,87.64-12.48,89.03,47.15-1.66,3.88-3.33,7.21-3.33,7.21,0,0,18.58-53.53-85.7-54.36Z"/>
    <path class="st1" d="M192.57,429.09c-.18,5.3-5.82-9.98-6.1-12.48,6.1-3.88,13.87-6.1,18.3-6.66,6.66,1.39,19.97,5.27,32.45,4.99,9.71,4.71,20.52,21.08,15.81,42.71l-5.27,10.82s.55-12.2-1.11-16.09c-1.66.28-7.77-6.93-9.43-16.09-5.27-6.1-32.17-17.47-46.32-18.03,2.22,1.66,2.22,3.05,1.66,10.82Z"/>
    <path class="st6" d="M269.67,435.61c12.48-9.15,43.26-37.86,79.46,23.71-9.15-12.9-24.96-35.36-67.39-40.77-8.74,11.23-8.32,10.4-12.06,17.06Z"/>
    <path class="st10" d="M352.32,322.04c8.32-.28,47.98,7.44,17.19,48.51,3.33-11.35,14.98-42.41-17.19-48.51Z"/>
    <path class="st11" d="M283.26,391.3c9.71-14.91,18.68-47.11,1.44-61.52-.88,10,4.11,39.81-1.44,61.52Z"/>
    <path class="st17" d="M293.24,576.35c-.2.02-.39.04-.59.06-5.36.29-14.85-2.18-24.58-8.94,2.14-.06,4.2-.12,6.15-.22,8.55,5.28,16.03,7.37,18.43,8.37.81.33,1.04.55.59.73Z"/>
    <path class="st16" d="M313.05,403.85c7.9,7.21-.94,31.9-5.66,36.89,3.89-7.76,8.6-29.13,3.89-32.18-30.74,3.42-50.98,36.3-61.47,62.96-4.85,12.3-7.64,23.26-8.43,29.39.37,31.39,12.06,49.49,24.28,60.03-1.24-.02-2.51-.02-3.79-.02-.59,0-1.16,0-1.73.02-12.16-11.75-22.93-31.14-24.16-61.27,1.55-8.9,5.25-18.41,9.96-28.37,11.16-23.59,28.13-49.84,36.42-76.95.31-1.02.61-2.04.9-3.06,15.54-25.16,59.31-67.19,106.87-92.98l.08,5.62c-6.36,1.38-62.71,31.82-105.51,87.36-1.36,8.82-6.42,21.43-10.04,30.31,21.3-17.31,26.64-14.42,38.39-17.76Z"/>
    <path class="st6" d="M294.45,357.54c5.73-19.69,12.95-50.75,23.21-64.07-5.55,4.99-14.2,22.3-23.47,55.68"/>
    <path class="st12" d="M302.31,322.58c-1.22-3.56-3.58-4.13-6.4-2.91-7.11,3.06-17.29,17.44-20.41,24.42-1.87-11.85.41-36.19,11.43-35.36,8.8,1.36,15.13,4.64,15.38,13.85Z"/>
    <path class="st2" d="M302.31,322.58c.08,2.12-.18,4.56-.81,7.37-2.93-6.25-2.48-7.78-5.6-10.27,2.83-1.22,5.19-.65,6.4,2.91Z"/>
    <path class="st6" d="M302.33,322.65s-.02-.06-.02-.08"/>
    <path class="st18" d="M354.18,380.98c-.81.73-1.79,1.53-2.93,2.38-.02,0-.04.02-.06.04-4.66,3.48-11.47,7.6-15.07,9.61-3.77-10.35-3.2-21.14-5.66-24.05,1.75.94,3.67,2.91,5.34,4.99,0,0,0,.02.02.02.02.02.04.04.06.08,2.32,2.89,4.15,5.97,4.38,6.93,1.22-1.18,5.7-1,9.25-.61,2.57.26,4.66.61,4.66.61Z"/>
    <path class="st15" d="M356.08,377.44c0,.53-.02.96-.02,1.28-.22.57-.9,1.36-1.89,2.26,0,0-2.08-.35-4.66-.61-.24-6.99-9.17-25.99-14.4-31.33,2.89,5.91.96,17.27.71,24.93-.02,0-.02-.02-.02-.02-1.67-2.08-3.59-4.05-5.34-4.99,2.46,2.91,1.89,13.69,5.66,24.05-.71.39-1.28.69-1.69.9-.84-1.24-1.65-2.48-2.4-3.71-2.73-4.54-4.79-9.08-6.31-13.54-7.43-21.96-1.81-42.41-.65-54.3,12.67,3.91,20.19,12.08,24.65,21.06.28.57.55,1.12.79,1.69.12.24.22.47.31.71.94,2.18,1.73,4.38,2.36,6.56.18.59.35,1.18.49,1.77.1.33.18.69.26,1.02.16.59.29,1.2.41,1.79.14.59.26,1.18.35,1.77.02.1.04.22.06.31.04.1.06.22.06.31.16.83.29,1.63.39,2.42.26,1.71.43,3.34.57,4.87.04.59.08,1.14.12,1.71.04.59.08,1.16.1,1.69.02.53.06,1.04.06,1.53.02.39.02.77.04,1.12v.61c.02,1.73,0,3.12-.02,4.15Z"/>
    <path class="st0" d="M378.95,403.37c4.52,2.32,5.34,6.07,6.58,6.21-4.42,1.1-14.42-3.04-15.79-3.48,3.04,2.79,5.03,6.25,6.05,6.52-3.56.69-16.62-4.58-16.68-6.38-.47.71-10.04.92-12.4-2.87l.08-.14h.02c5.3-.63,15.74-3.34,20.9-6.07-8.17-.31-12.87-1.04-15.85-1.94-3.91-1.2-4.89-2.71-7.01-4.01,2.97-3.77,10.98-5.44,14.26-7.48,5.5-1.06,16.03,2.97,17.56.75.96.55,1.1,3.06,0,3.75,4.15-.55,8.03-.24,9.02-2.34.41,2.06,2.49,6.64,0,8.02,4.85-1.1,6.09-1.1,6.64-1.94-.83,3.2,4.44,11.04-13.38,11.41Z"/>
    <path class="st0" d="M369.79,376.44c-2.28-.22-7.72-.45-13.71,1,.02-1.02.04-2.44.02-4.15v-.61c0-.35-.02-.73-.04-1.12,0-.49-.02-1-.06-1.53-.02-.53-.06-1.1-.1-1.69-.02-.55-.06-1.12-.12-1.71-.14-1.53-.31-3.16-.57-4.87-.1-.79-.24-1.59-.39-2.42,0-.1-.02-.22-.06-.31,0-.12-.02-.22-.06-.31-.1-.59-.22-1.18-.35-1.77-.12-.59-.26-1.2-.41-1.79-.08-.33-.16-.69-.26-1.02-.14-.59-.31-1.18-.49-1.77-.63-2.18-1.41-4.38-2.36-6.56-.1-.24-.2-.47-.31-.71-.24-.57-.51-1.12-.79-1.69,5.09-.67,8-.16,9.67,0-.83,1.39,0,.16-.83,1.39,3.32,1.47,16.64,10.82,20.37,12.28-.2,4.58-9.9,15.77-9.15,19.35Z"/>
    <path class="st8" d="M406,400.98c.83,4.16-2.71,10.41-7.7,11.65-2.22.53-8.03,2.89-15.13,4.3-9.55,1.91-21.41,2.14-30.02-5.97-2.08-1.22-5.68-4.38-9.17-7.66.53.12,1.51.1,2.81-.06l-.08.14c2.36,3.79,11.92,3.58,12.4,2.87.06,1.81,13.12,7.07,16.68,6.38-1.02-.27-3.01-3.73-6.05-6.52,1.38.43,11.37,4.58,15.79,3.48-1.24-.14-2.06-3.89-6.58-6.21,17.82-.37,12.55-8.21,13.38-11.41-.55.84-1.79.84-6.64,1.94,2.49-1.38.41-5.95,0-8.02-.98,2.1-4.87,1.79-9.02,2.34,1.1-.69.96-3.2,0-3.75-1.53,2.22-12.06-1.81-17.56-.75.18-.12.35-.22.49-.33-2.26.29-5.87-1.93-8.35-.04,1.14-.84,2.12-1.65,2.93-2.38.98-.9,1.67-1.69,1.89-2.26,0-.31.02-.75.02-1.28,5.99-1.45,11.43-1.22,13.71-1,.41,1.24-1.04,2.91,0,3.95,3.12-1.67,5.21-3.54,13.1-1.04-.41,1.87-1.45,2.91-1.45,2.91,3.12-.2,6.44-1.65,11.87,0-1.67,2.08-3.75,3.12-1.67,4.16,3.75-.83,8.94-.41,11.87,1.26.41,2.69,3.73,9.57,2.49,13.3Z"/>
    <path class="st0" d="M329.27,436.06c-4.05-5.03-7.31-15.93-7.31-24.26-.83,7.7-10.2-.22-14.14,0-6.66-2.49-8.11-4.58-9.57-6.25-4.99,1.87-9.98,1.04-12.06,1.87-.84-3.1,0-10.25,0-10.25-4.79-.55-8.33-2.63-9.78-3.26,3.12-2.91,23.71-16.84,27.88-14.97.28-.02.53-.06.81-.08-1.08,4.11-.04,14.36,0,15.76,3.63.28,12.79-.71,15.01,0,.69,3.46-1.53,10.39-2.63,11.63,1.79,1.81,9.84-.96,11.22,0-.41,2.79-1.24,18.86-.83,20.25,2.49-.14,1.89-.55,3.08-1.24.1,2.2-.67,9.29-1.67,10.8Z"/>
    <path class="st13" d="M342.62,402.02c-3.52-1.28-3.2.22-8.19,0-5.62-2.69-2.91-6.86-2.4-11.83.75,1.24,1.55,2.48,2.4,3.71,0,0,3.83,3.95,8.19,8.11Z"/>
    <path class="st5" d="M383.17,424.69c-.28,3.75.35,6.46-.88,9.57-1.89,1.45-7.92,4.38-9.37,3.97,1.26,2.28.41,5.6,0,7.07-3.73,0-8.74-5.21-8.74-9.78-2.69-4.16-14.34-16.23-15.38-17.48,1.67,3.34,2.28,5.62,2.28,7.7-2.91,1.04-12.69-1.65-15.38-4.99.63,4.99,1.87,16.23-5.21,16.64-.41-.37-.83-.83-1.22-1.32,1-1.51,1.77-8.6,1.67-10.8-1.2.69-.59,1.1-3.08,1.24-.41-1.39.41-17.46.83-20.25-1.38-.96-9.43,1.81-11.22,0,1.1-1.24,3.32-8.17,2.63-11.63-2.22-.71-11.37.28-15.01,0-.04-1.39-1.08-11.65,0-15.76,6.15-.61,12-1.26,14.6-.1-.63-1.28,2.32-3.08,6.05-2.1,1.51,4.46,3.58,9,6.31,13.54-.51,4.97-3.22,9.13,2.4,11.83,4.99.22,4.68-1.28,8.19,0,.45.41.9.84,1.36,1.28,3.5,3.28,7.09,6.44,9.17,7.66,8.6,8.11,20.47,7.88,30.02,5.97,1.61,2.99,1.94,7.76,0,7.76Z"/>
    <line class="st6" x1="336.12" y1="393.02" x2="336.12" y2="393"/>
    <path class="st4" d="M367.71,397.17c-5.17,2.73-15.6,5.44-20.9,6.07h-.02c-1.3.16-2.28.18-2.81.06-.45-.43-.9-.86-1.36-1.28-4.36-4.16-8.19-8.11-8.19-8.11.41-.22.98-.51,1.69-.9,3.6-2,10.41-6.13,15.07-9.61.02-.02.04-.04.06-.04,2.48-1.89,6.09.33,8.35.04-.14.12-.31.22-.49.33-3.28,2.04-11.3,3.71-14.26,7.48,2.12,1.3,3.1,2.81,7.01,4.01,2.99.9,7.68,1.63,15.85,1.94Z"/>
    <path class="st0" d="M349.52,380.37c-3.56-.39-8.03-.57-9.25.61-.24-.96-2.06-4.05-4.38-6.93-.02-.04-.04-.06-.06-.08.26-7.66,2.18-19.02-.71-24.93,5.23,5.34,14.16,24.34,14.4,31.33Z"/>
    <path class="st4" d="M335.2,287.96c-4.71-.28-8.92-1-11.37.57,3.61,1.51,3.08,3.83,2.93,5.11-2.28-1.94-4.52-3.42-6.46-3.93-2.06-.47-2.81-1.22-2.81-2.02,0-1.12,1.41-2.4,2.81-3.36,1.32-.92,2.61-1.59,2.61-1.59.79-.61,2.57-1.55,4.95-2.61.37-.18.77-.33,1.18-.51h.02c1.34.1,4.48-.28,6.15.51,0,1.04-.96,3.46-1.53,4.2,1.39,1,1.39,2.26,1.53,3.63Z"/>
    <path class="st5" d="M370.21,305.82c-.51-5.72-4.46-11.24-6.23-12.79-1.98-.73-2.18-2.18-4.48-1.26.22-1.87-3.22-9.67-4.36-10.18,1.67,3.22,4.89,15.91,3.32,17.15,1.98.53,8.74,12.59,2.71,17.78-1.67-3.73-4.68-9.13-8.21-10.8,1.77,5.81,1.45,14.87-2.71,17.37-3.12-3.75-5.62-7.8-5.4-8.53-1.89,1.14-.94.92-1.67,1.36.1-1.89-2.28-8.74-2.28-8.74,0,2.18.29,1.87-.31,2.81-.49-1.32-6.01-9-11.85-14.58h-.02c-.39-.37-.77-.71-1.14-1.06,0,0-.02-.02-.04-.02-.28-.26-.53-.47-.79-.69.16-1.28.69-3.6-2.93-5.11,2.46-1.57,6.66-.84,11.37-.57-.14-1.38-.14-2.63-1.53-3.63.57-.75,1.53-3.16,1.53-4.2-1.67-.79-4.81-.41-6.15-.51,4.93-2.08,11.87-4.32,17.66-4.85,1.51-.14,2.95-.18,4.26-.04-1.55.84-1.45.1-1.55.84.88.02,2.3.04,3.95.1,4.71.14,11.32.45,12.79,1.45,1.98,1.36,3.85,11.43,5.4,12.28,2.18.83,4.79,11.53-1.36,16.42Z"/>
    <path class="st15" d="M353.37,275.66c-1.65-.06-3.06-.08-3.95-.1.1-.75,0,0,1.55-.84-1.32-.14-2.75-.1-4.26.04,2.36-2.46,4.71-17.86,3.75-20.63-2.55,1.77-6.68,3.91-7.72,5.4,2.18-4.11,2.51-9.61,3.85-10.8-4.05,3.46-9.72,11.08-11.39,14.69,1.53-7.17,3.65-12.45,5.66-15.34.79-.9,1.49-1.63,2.08-2.14-.65.39-1.36,1.12-2.08,2.14-5.62,6.48-14.95,21.71-14.95,29.11-.65.47-1.41,1-2.36,1.26-.27-1.2-.41-.75-.96-3.24-.55-2.49.41-4.7-1.04-2.28.02-.57.04-1.14.04-1.67,5.8-5.07,2.83-25.91,2.24-28.23,19.53-12.89,32.2,3.83,33.14,7.62,1.81-.55,4.71-.14,6.38,0,1.53,4.03-7.07,18.58-9.98,25.01Z"/>
    <path class="st0" d="M321.58,271.26c.04-1.55-.04-2.89-.26-3.81-.83-4.03-.69-18.72,1.26-23.57.41-.29.83-.57,1.24-.84.59,2.32,3.56,23.16-2.24,28.23Z"/>
    <path class="st15" d="M321.33,267.45c.22.92.29,2.26.26,3.81,0,.53-.02,1.1-.04,1.67-.26,5.15-1.26,11.39-1.26,11.39-1.39.96-2.81,2.24-2.81,3.36-.02-.84-.28-2.46,1.91-3.36,1.51-.63,1.49-5.36-.86-11.37-3.04-7.8-10-17.74-22.63-23.57-.08-.04-.16-.08-.24-.12-.18-2.3-1.49-7.64-1.91-9.55,4.28-.28,24.54,3.04,28.84,4.16-1.94,4.85-2.08,19.55-1.26,23.57Z"/>
    <path class="st15" d="M295.89,249.38l-.22.04s0-.1-.02-.16c.08.04.16.08.24.12Z"/>
    <path class="st0" d="M286.79,264.31c-3.08-.16-10.27.59-12.89.08-1.24-1.38-1.38-1.24-5.95-1.51-7.37.55-8.05-3.61-11.92-6.8-.57-3.61,2.63-10.69,12.34-11.53.83-.04,1.65-.06,2.44-.06,1.1,1.71,6.23,9.96,6.01,12.04,2.61,2.69,6.64,6.84,9.98,7.78Z"/>
    <path class="st5" d="M316.89,278.45c-1.1-1.34-4.01-2.69-5.52-4.5-.69,1.12-5.95,3.18-5.99,5.48-.49-.33-1-.67-1.51-.98-3.16-2.08-6.37-4.05-7.94-5.13h-.02c-.49-.35-.83-.61-.92-.75-.83-.98-.96-.98-1.94-.55-.69-.84-.41-2.08-.69-3.2-.83-.83-.41-1.1-2.49-1.1,0,0-1.81-.57-2.18-3.34-.24-.04-.53-.06-.88-.08-3.34-.94-7.37-5.09-9.98-7.78.22-2.08-4.91-10.33-6.01-12.04,10-.16,18.19,1.75,24.85,4.77.08.04.16.08.24.12,12.63,5.83,19.59,15.77,22.63,23.57.31.79-.51,6.84-1.63,5.5Z"/>
    <path class="st13" d="M319.38,284.33c-2.18.9-1.93,2.51-1.91,3.36v.28s-2.81-.28-5.17-2.77c-.51-1.24-3.54-3.48-6.93-5.74v-.02c.04-2.3,5.3-4.36,5.99-5.48,1.51,1.81,4.42,3.16,5.52,4.5,1.12,1.34,1.94-4.71,1.63-5.5,2.36,6.01,2.38,10.75.86,11.37Z"/>
    <path class="st15" d="M311.33,291.42c-.35.14-.71.28-1.04.39-1.14.39-2.22.59-3.1.45-.22-.04-.45-.04-.71,0-3.38.35-8.58,6.38-14.12,6.6-1.26-1.45-1.67-4.79-1.53-6.05-1.65,0-2.63-.69-6.36-1.38,1.1-5.13-15.13-9.57-13.59-14.69,6.64-4.7,22.65-3.89,25.05-3.42h.02c1.57,1.08,4.77,3.04,7.94,5.13.49.31.69,7.15,2.63,8.68-1.38,0-2.77,1.1-4.85,1.39,1.53.55,6.62,2.48,9.68,2.89Z"/>
    <path class="st15" d="M328.72,295.41c-12.97,5.8-22.49-1.75-22.24-3.14.26-.04.49-.04.71,0,.88.14,1.96-.06,3.1-.45-.29.55.16,1.24.37,1.83.28.71,1.24.12,3.18,0s1.39.31,2.63,1.28c1.26.96,4.01,1.65,5.05.53,1.06-1.1.51-1.1,2.3-1.1s3.24-.39,3.71-.02c.02,0,.04.02.04.02.37.35.75.69,1.14,1.06Z"/>
    <path class="st4" d="M317.48,287.96s-3.04,2.18-6.11,3.46h-.04c-3.06-.41-8.15-2.34-9.68-2.89,2.08-.29,3.48-1.39,4.85-1.39-1.94-1.53-2.14-8.37-2.63-8.68.51.31,1.02.65,1.51.98v.02c3.4,2.26,6.42,4.5,6.93,5.74,2.36,2.49,5.17,2.77,5.17,2.77Z"/>
    <path class="st6" d="M321.55,272.93s-.02.02-.02.02"/>
    <path class="st4" d="M327.54,294.33c-.47-.37-1.94.02-3.71.02s-1.24,0-2.3,1.1c-1.04,1.12-3.79.43-5.05-.53-1.24-.96-.69-1.39-2.63-1.28s-2.91.71-3.18,0c-.22-.59-.67-1.28-.37-1.83.33-.12.69-.26,1.04-.39h.04c3.06-1.28,6.11-3.46,6.11-3.46v-.28c0,.81.75,1.55,2.81,2.02,1.94.51,4.18,1.98,6.46,3.93.26.22.51.43.79.69Z"/>
    <path class="st6" d="M310.66,291.42c-.18.12-.31.24-.37.39"/>
    <path class="st6" d="M327.85,280.12c-2.38,1.06-4.16,2-4.95,2.61,0,0-1.3.67-2.61,1.59,0,0,1-6.25,1.26-11.39,1.45-2.42.49-.22,1.04,2.28.55,2.49.69,2.04.96,3.24.94-.26,1.71-.79,2.36-1.26.86-.65,1.47-1.22,1.94-1,.96.39,0,3.93,0,3.93Z"/>
    <path class="st0" d="M346.71,274.76c-5.8.53-12.73,2.77-17.66,4.85h-.02c-.41.18-.81.33-1.18.51,0,0,.96-3.54,0-3.93-.47-.22-1.08.35-1.94,1,0-7.41,9.33-22.63,14.95-29.11-2,2.89-4.13,8.17-5.66,15.34,1.67-3.61,7.35-11.24,11.39-14.69-1.34,1.2-1.67,6.7-3.85,10.8,1.04-1.49,5.17-3.63,7.72-5.4.96,2.77-1.39,18.17-3.75,20.63Z"/>
    <path class="st6" d="M342.94,245.94c-.59.51-1.3,1.24-2.08,2.14.73-1.02,1.43-1.75,2.08-2.14Z"/>
    <path class="st6" d="M321.58,271.26l-.06.06"/>
    <line class="st6" x1="323.82" y1="243.03" x2="323.82" y2="243.01"/>
    <line class="st6" x1="270.8" y1="244.49" x2="270.8" y2="244.47"/>
    <path class="st6" d="M274.23,567.26c-1.94.1-4.01.16-6.15.22,9.72,6.76,19.21,9.23,24.58,8.94v-.79c-2.4-1-9.88-3.08-18.43-8.37ZM241.38,500.92c.79-6.13,3.58-17.09,8.43-29.39-1.34-.08-2.63-.14-3.87-.22-4.71,9.96-8.41,19.47-9.96,28.37,1.24,30.14,12,49.52,24.16,61.27.57-.02,1.14-.02,1.73-.02,1.28,0,2.55,0,3.79.02-12.22-10.55-23.91-28.64-24.28-60.03Z"/>
    <path class="st9" d="M292.65,564.23v11.39c-2.4-1-9.88-3.08-18.43-8.37,10.84-.51,18.43-1.67,18.43-3.03Z"/>
    <path class="st6" d="M292.65,468.48v95.75c0-1.67-11.79-3.06-26.99-3.28-12.22-10.55-23.91-28.64-24.28-60.03.79-6.13,3.58-17.09,8.43-29.39,3.71.16,7.78.26,12.04.26,17.01,0,30.8-1.47,30.8-3.3Z"/>
    <path class="st6" d="M231.09,564.23s0,.08.04.14h-.06v-95.89c0,1.2,5.95,2.24,14.87,2.83-4.71,9.96-8.41,19.47-9.96,28.37,1.24,30.14,12,49.52,24.16,61.27-16.21.08-29.05,1.53-29.05,3.28Z"/>
    <path class="st9" d="M292.65,576.41v23.95c0,1.83-13.79,3.3-30.8,3.3s-30.78-1.47-30.78-3.3v-35.99h.06c.63,1.77,14.14,3.16,30.74,3.16,2.12,0,4.2-.02,6.21-.06,9.72,6.76,19.21,9.23,24.58,8.94Z"/>
    <path class="st9" d="M268.08,567.47c-2,.04-4.09.06-6.21.06-16.6,0-30.12-1.39-30.74-3.16-.04-.06-.04-.1-.04-.14,0-1.75,12.85-3.2,29.05-3.28,2.61,2.51,5.28,4.68,7.94,6.52Z"/>
    <path class="st9" d="M292.65,564.23c0,1.36-7.58,2.51-18.43,3.03-2.79-1.73-5.7-3.79-8.57-6.31,15.21.22,26.99,1.61,26.99,3.28Z"/>
    <path class="st3" d="M274.23,567.26c-1.94.1-4.01.16-6.15.22-2.65-1.85-5.32-4.01-7.94-6.52.57-.02,1.14-.02,1.73-.02,1.28,0,2.55,0,3.79.02,2.87,2.51,5.78,4.58,8.57,6.31Z"/>
  </g>
</svg>