<?xml version="1.0" encoding="UTF-8"?>
<svg id="_レイヤー_1" data-name="レイヤー_1" xmlns="http://www.w3.org/2000/svg" version="1.1" viewBox="0 0 595.28 841.89">
  <!-- Generator: Adobe Illustrator 29.4.0, SVG Export Plug-In . SVG Version: 2.1.0 Build 152)  -->
  <defs>
    <style>
      .st0 {
        fill: #4cb5d5;
      }

      .st1 {
        stroke: #083e61;
      }

      .st1, .st2, .st3, .st4, .st5, .st6, .st7, .st8, .st9 {
        stroke-width: 6px;
      }

      .st1, .st2, .st3, .st4, .st5, .st7, .st8, .st9 {
        stroke-miterlimit: 10;
      }

      .st1, .st2, .st6, .st8, .st9 {
        fill: none;
      }

      .st2 {
        stroke: #231815;
      }

      .st3, .st4 {
        fill: #fff;
      }

      .st3, .st5, .st7, .st8 {
        stroke: #043c5e;
      }

      .st4, .st9 {
        stroke: #023b5c;
      }

      .st5, .st10 {
        fill: #b2bcbb;
      }

      .st6 {
        stroke: #fff;
        stroke-linecap: round;
        stroke-linejoin: round;
      }

      .st7 {
        fill: #083e61;
      }

      .st11 {
        fill: #e6e6e6;
      }
    </style>
  </defs>
  <ellipse class="st11" cx="297.64" cy="420.94" rx="247.5" ry="245.78"/>
  <path class="st10" d="M447.99,367.3v155.57c0,6.6-5.4,12-12,12H178.76c-6.6,0-12-5.4-12-12v-1.55h253.98c6.6,0,12-5.4,12-12v-154.02h3.25c6.6,0,12,5.4,12,12Z"/>
  <path class="st4" d="M166.76,521.32h-7.48c-6.6,0-12-5.4-12-12v-32.89h16.79c-.64,17.69-.01,33.57,2.69,44.89Z"/>
  <path class="st2" d="M176.08,429.42v23.29h13.98v-23.29h-13.98ZM340.86,380.72c14.9,12.83,24.33,31.83,24.33,53.04,0,16.07-5.42,30.86-14.52,42.67h81.64v-95.71h-91.45ZM176.08,429.42v23.29h13.98v-23.29h-13.98Z"/>
  <path class="st5" d="M432.74,353.75v155.57c0,6.6-5.4,12-12,12h-253.98c-2.7-11.32-3.33-27.2-2.69-44.89h75.65c12.8,16.62,32.89,27.32,55.48,27.32s42.68-10.7,55.47-27.32h81.64v-95.71h-91.45c-12.26-10.57-28.21-16.95-45.66-16.95s-33.41,6.38-45.66,16.95h-74.46c1.72-9.96,3.38-18.68,4.79-25.42,1.39-6.67,2.52-11.42,3.2-13.55h237.67c6.6,0,12,5.4,12,12Z"/>
  <path class="st3" d="M183.07,341.75c-.68,2.13-1.81,6.88-3.2,13.55-1.41,6.74-3.07,15.46-4.79,25.42h-27.8v-26.97c0-6.6,5.4-12,12-12h23.79Z"/>
  <path class="st8" d="M211.23,328.57v13.18h-35.15v-13.18c0-2.53,2.07-4.61,4.61-4.61h25.94c2.53,0,4.61,2.07,4.61,4.61Z"/>
  <path class="st8" d="M401.82,327.37v14.38h-38.12v-14.38c0-1.87,1.53-3.41,3.41-3.41h31.3c1.87,0,3.41,1.53,3.41,3.41Z"/>
  <path class="st8" d="M346.76,341.75h-116.47l19.04-28.38c2.66-3.97,7.12-6.35,11.9-6.35h54.59c4.78,0,9.24,2.38,11.91,6.35l19.03,28.38Z"/>
  <path class="st8" d="M307.8,333.84v7.91h-32.19v-7.91c0-6.6,5.4-12,12-12h8.19c6.6,0,12,5.4,12,12Z"/>
  <rect class="st2" x="176.08" y="429.42" width="13.98" height="23.29"/>
  <path class="st7" d="M249.54,380.72h-102.26v95.71h92.44c-9.1-11.81-14.51-26.6-14.51-42.67,0-21.21,9.43-40.22,24.33-53.04ZM190.06,452.71h-13.98v-23.29h13.98v23.29Z"/>
  <rect class="st9" x="176.08" y="429.42" width="13.98" height="23.29"/>
  <path class="st7" d="M432.31,380.72v95.71h-81.64c9.1-11.81,14.52-26.6,14.52-42.67,0-21.21-9.43-40.21-24.33-53.04h91.45Z"/>
  <circle class="st0" cx="302.52" cy="441.06" r="52.98"/>
  <path class="st6" d="M275.61,415.7c-7.2,10.59-13.13,23.29-4.66,36"/>
  <circle class="st1" cx="295.58" cy="433.7" r="52.98"/>
</svg>