<?xml version="1.0" encoding="UTF-8"?>
<svg id="_レイヤー_1" data-name="レイヤー_1" xmlns="http://www.w3.org/2000/svg" version="1.1" viewBox="0 0 595.28 841.89">
  <!-- Generator: Adobe Illustrator 29.4.0, SVG Export Plug-In . SVG Version: 2.1.0 Build 152)  -->
  <defs>
    <style>
      .st0 {
        fill: #956134;
      }

      .st1 {
        fill: #b28247;
      }

      .st2 {
        fill: #231815;
      }
    </style>
  </defs>
  <g>
    <rect class="st0" x="290.38" y="468.65" width="16.59" height="174.49" rx="8.3" ry="8.3"/>
    <g>
      <path class="st2" d="M299.23,645.55c-.7,0-.45.4-.56.48,1.22-.15.51-.59.56-.48Z"/>
      <path class="st2" d="M307.52,638.98l.07.24c.12-.53.16-1.07.19-1.59-.07.44-.13.91-.27,1.35Z"/>
      <path class="st2" d="M308.46,630.09c-.71.79.12,3.04-.14,4.53l-.16.25c.18.26.36.53.53.82,0-.27,0-.56,0-.85-.02-.24-.04-.49-.06-.73-.05-.5-.09-1-.14-1.49-.08-.98-.13-1.89-.03-2.52Z"/>
      <path class="st2" d="M310.01,625.61c-.28.28-.24-.97-.09,1.04.03-.1.05-.13.07-.19,0-.18,0-.43.02-.85Z"/>
      <path class="st2" d="M309.99,626.47c.02.88.23-.58,0,0h0Z"/>
      <path class="st2" d="M309.83,622.39l.25,1.16c.16-.24.2-1.28.32-.89-.14-1.19-.3-.95-.57-.27Z"/>
      <path class="st2" d="M309.31,621.29l.11.6c.07-.11.09-.27-.11-.6Z"/>
      <path class="st2" d="M309.64,623.17l-.22-1.28c-.12.17-.35.19.08.59-.21-.1,0,.15.14.69Z"/>
      <path class="st2" d="M309.53,623.89c-.16.65-.25,1.5-.5.33.1,2.23.6,1.9.5-.33Z"/>
      <path class="st2" d="M307.72,629.66l-.21.87.24.75c-.12-.38.19-1.68-.03-1.63Z"/>
      <path class="st2" d="M310.2,615.15c-.15-.07-.4.39-.6.48l.17.86c.1-.44.2-1.28.42-1.34Z"/>
      <path class="st2" d="M309.6,615.62l-.26-1.29c-.03,1.15.09,1.36.26,1.29Z"/>
      <polygon class="st2" points="308.52 621.08 309.07 623.19 308.51 620.67 308.52 621.08"/>
      <polygon class="st2" points="310.22 610.24 310.57 610.97 310.04 609.67 310.22 610.24"/>
      <path class="st2" d="M310.16,606.98c.29.54.49-.74.67-.17-.05-.88-.3-1.64-.53-2.32.13.72.09,1.49-.14,2.49Z"/>
      <path class="st2" d="M309.98,603.35c.07.36.19.73.33,1.14-.07-.38-.16-.76-.33-1.14Z"/>
      <path class="st2" d="M309.42,612.15c.09-.1.33-.29.43-1.01l-.43.51c0,.15,0,.33,0,.51Z"/>
      <path class="st2" d="M309.41,611.66v-.02c.03-.55.03-.93.04-1.09,0,.14-.02.47-.04,1.11Z"/>
      <path class="st2" d="M309.41,612.28s0-.08,0-.13c-.04.05-.06.08,0,.13Z"/>
      <path class="st2" d="M308.9,617.71c-.24-.76-.5-2.33-.86-.81.29.54.5-.33.86.81Z"/>
      <path class="st2" d="M308.88,612.9l-.1,1.37c.11-.03.28-.27.4.1l-.3-1.47Z"/>
      <polygon class="st2" points="308.74 612.24 308.88 612.9 308.92 612.4 308.74 612.24"/>
      <path class="st2" d="M309.58,605.69c-.19-.59-.2-1.23-.23-1.96-.08.78-.13,1.59-.13,2.36.13.11.38.45.36-.39Z"/>
      <path class="st2" d="M309.46,608.59s-.02-.09-.02-.13c-.04.08-.05.15.02.13Z"/>
      <polygon class="st2" points="309.35 596.55 309.27 596.67 309.34 596.69 309.35 596.55"/>
      <path class="st2" d="M309.14,606.21c-.08.59.02.94.15,1.27-.04-.44-.07-.9-.07-1.4-.06-.05-.1-.06-.08.13Z"/>
      <path class="st2" d="M309.78,601.35c-.09.31-.16.65-.23,1.02.14-.3.35-.91.23-1.02Z"/>
      <path class="st2" d="M309.55,608.26s.01.06.02.09c.09-.19.05-.17-.02-.09Z"/>
      <path class="st2" d="M309.55,608.26c-.06-.3-.17-.54-.26-.78.03.36.08.69.14.98.03-.07.08-.15.12-.2Z"/>
      <path class="st2" d="M306.6,594.38c.4.1.76,1.65.34,2.98.3,1.31,1.6.45,2.33-.69-.17-.04-.33-.04-.57-1.39-.22.47-.51,2.99-.86,1.86-.2-1.79.14-1.46.35-2.33-.49.74-.72-2.27-1.44-1.88l.26,1.57c-.11.03-.29-.54-.4-.1Z"/>
      <path class="st2" d="M309.23,599.24l.05.56c.07-.63.23-1.09.54-1.92-.19-.92-.34-1.12-.47-1.18l-.06,2.73-.06-.19Z"/>
      <path class="st2" d="M309.28,602.28c-.43-.43-.61-1.77-1.08-.95.03,1.63.36,1.14.55,2.12-.11-2.63.24.76.48-1.14.07.52.1.98.11,1.42.05-.47.12-.93.2-1.36-.01.02-.02.04-.03.06h0s0,0,0,0c-.05.11-.09.15-.06.02,0,0,0-.04,0-.05-.06-.02-.11-.07-.16-.12.09-.76.11-.12.16.12.02,0,.04.03.06.03h0s-.24-2.64-.24-2.64c-.06.56-.05,1.26,0,2.49Z"/>
      <path class="st2" d="M307.12,615.5c.04-.08.07-.08.1-.08-.05-.17-.09-.23-.1.08Z"/>
      <path class="st2" d="M307.38,614.42c.06.19.23.35.19.97-.13.54-.21,0-.35.03.11.38.31,1.31.52.14l-.06-.19c.15-1.06.69-2.42.74-2.24-.39.31-.66.58-1.04,1.29Z"/>
      <path class="st2" d="M308.22,608.27l-.21-2.19-.37,1.12.22-.06c-.09,1.25.19.98.36,1.13Z"/>
      <polygon class="st2" points="309.56 596.3 310.02 596.59 309.37 595.32 309.56 596.3"/>
      <polygon class="st2" points="309.51 593.45 309.9 593.55 309.66 592.8 309.51 593.45"/>
      <path class="st2" d="M292.75,495.23l.11.64c-.03-.3-.07-.5-.11-.64Z"/>
      <path class="st2" d="M292.78,490.56l-.19-.11c.11.22.19.3.19.11Z"/>
      <path class="st2" d="M309.46,523.45c.37-.94.94-1.99.5-1.87l-.43.29c.08.66.03,1.16-.06,1.59Z"/>
      <path class="st2" d="M306.74,475.54c-.03.09-.06.19-.09.29.19.2.34.4.48.59-.09-.27-.24-.57-.39-.87Z"/>
      <path class="st2" d="M304.86,475.35c.03-.34-.02-.66-.04-1.01-.03.25.04.57.04,1.01Z"/>
      <path class="st2" d="M293.21,520.71l.44.75c0-1.18-.23-.66-.44-.75Z"/>
      <path class="st2" d="M309.35,564.26c.17-.81.24-1.45.26-2.02-.25.98-.62,1.76-.26,2.02Z"/>
      <path class="st2" d="M288.15,493.39c.08.39.17.56.26.55-.07-.41-.16-.64-.26-.55Z"/>
      <path class="st2" d="M309.61,559.9c-.04.14-.07.28-.1.43.07.59.13,1.19.1,1.91.19-.72.3-1.55,0-2.34Z"/>
      <path class="st2" d="M292.85,613.12c-.02.07-.03.15-.05.21.06.02.06-.07.05-.21Z"/>
      <path class="st2" d="M290.43,640.82c-.23-.24-.5-.7-.76-1.13.1.22.29.6.76,1.13Z"/>
      <path class="st2" d="M309.7,581.98c.03.6.05.1,0,0h0Z"/>
      <path class="st2" d="M307.98,584.92c-.05-.13-.11-.23-.21-.24.1.05.17.13.21.24Z"/>
      <path class="st2" d="M306.91,553.88s0-.03,0-.05c-.08.18-.07.15,0,.05Z"/>
      <path class="st2" d="M309.5,582.89c.05-.23.1-.49.13-.77-.03.12-.08.36-.13.77Z"/>
      <path class="st2" d="M309.7,582.77c-.02.21-.03.37-.04.53.07.08.12,0,.04-.53Z"/>
      <path class="st2" d="M309.67,581.14c0,.35-.01.67-.04.98.03-.12.05-.17.07-.14,0-.18-.01-.43-.02-.84Z"/>
      <path class="st2" d="M291.69,563.6s-.02.09-.04.13c.18.61.15.34.04-.13Z"/>
      <path class="st2" d="M304.96,507.72s.02.04.02.07c0-.03.01-.06.02-.09l-.04.02Z"/>
      <path class="st2" d="M304.63,505.55c.54.92.47,1.45.36,2.15l1.25-.72-1.61-1.43Z"/>
      <path class="st2" d="M292.88,506.4l.39-1.52c.64,1.84.42,3.17.97,1.74-1.36-.22-.14-5.93-1.5-6.14l.29-1.01c-.01.29.07.33.05.62.65-1.95-.98-1.45-.79-3.97.1-.88.3-1.49.46-.89l-.34-1.96c.03-.57.26-.43.24.14l-.11-2.98.04.02c-.21-.43-.54-1.39-.68-1.86.19-.76.14.38.31.19l-.33-1.65c.35-.67.69.7.64,1.84,1.36-1.54-.34-1.37.45-4.7l.17,1.56c.77-1.01.49-2.22.97-3.99-.25.42-1.21,3.53-1.55,1.74.1-.51.15-1.17-.12-2.14.48,0,.36-.95.34-2.13l.64.08c-.18-1.28-.51-1.18-.8-1.93,0-.18.02-.34.04-.48.03-.12.06-.2.09-.28.07-.16.15-.28.26-.37.22-.18.46-.24.67-.3.21-.65-.03-.49-.31-.33-.28.16-.59.33-.39-.62.33-.6.6-1.1.9-1.64.3-.54.63-1.14,1.25-1.79.97-.33.06.42.47.39.14-.3.32-.57.52-.86.2-.08.2.1.2.18.63-.41-.21-.66.98-1.15.1-.37.85-.26,1.64.03.81.28,1.56.7,2.42.65.26.33-.32.28-.32.56.99.16,1.4.41,1.78.55.37.19.75.28,1.58.82.2.51.32,1.03.4,1.54-.02-.59.23-.67.65-.41.41.26.92.9,1.27,1.61.15-.51.22-.98.23-1.29.36.78.64,1.62.77,2.5-.09.32-.32.04-.61-.34.07.17.13.33.18.45-.23.88-.59.4-.97-.18.11-.28.24-.57.32-.86-.45-.53-1.03-.87-1.35-.67.1.11.25.34.31.61-.12-.11-.23-.18-.28-.1-.06.08.11.25.33.57-.23.18-.46.34-.69.49l.29.1-.44,3.15c.72,2.27,1.77,4.25,2.07,7.86-.52-.9-.85-.19-1.47-.24.66-.98-.28-2.8-.15-4.67-.07.98-.36.76-.47.51l.6,3.34c-.51-.08-.38.71-.59,1.58,1-.66.67,2.49.97,3.84-.34.08-.68-.24-.6-1.9-.75,1.83,1.18,2.36.54,4.15,0-.4.04-.62-.13-.78.3.94.06,3.25-.23,2.71v-.4c-.13,2.68-.01,8.17.84,8.57-.11.03-1.03-.35-1.2-.51l2.86,4.79c-.73-.42-2.47,1.2-2.88-1.03-.1.64-.23,1.43.03,2.78.1-.44,1.06-1.09,1.12-.49-.81,1.64-.43,1.14-1.13,3.15.16-.65,1.3.07,1.27,1.11-.17-.16-1.13.09-1.25-.29l1.12,2.57c-.2-.64-.95-.11-1.27.46.22-.27-.02,2.22.09,2.91l.26-1.09c-.17,2.9,1.58,2.87,1.52,5.75-.23-.35-1.43-.86-1.57.6.58.67,2.77,2.97,3.21,5.52l-.33.49.38,1.95c-.87-1.22-2.69-4.63-3.4-6.5-.26,1.09-.39.3-.36,1.93-.31.57-.47-.89-.49-1.37l-.2,3.79c.67-.17.67,2.9,1.23,2.75l-.7-4.11c.67-.17,1.91,2.38,1.79,5.06-.27.68-1.2-.51-1.42-.45.23.35.44,2.55.28,2.79l-.36-1.14c-.25,1.49.89,2.44.25,4.23-.04.62-.87,1.85-.47,1.96.77-1.01,3.14-1.21,3.72-.53-.05.22-.73,3.25-1.11,3.96-.6,1.02-1.43-1.53-1.95-.66.18.04.41.6.48.84-.16.65-.57-.27-.49,1.14.68.24-.06,2.88.58.67.19,1.38-.14,1.47-.11,3.09.44-.52,1.5,1.46,1.69,2.84-.17-.08-.4.23-.5.38-.06,2.84-.37,4.36-.38,7-.17.24-.36,1.52-.66.98.12.38.35.73.37,1.54-.59,1.58-.09-1.82-.8-.62.4.1.55,2.11.79,3.27.61-.36.12-2.68-.13-3.85.84,0,1.73,2.02,2.12,4.78.21,2.2-.55.95-.43,1.33-.15,4.12,1.47,3.51.86,6.94-.54,1.36-1.07.06-1.46.36-.2-1.79.34-2.75.32-3.96l-.25,1.49c-.18-.57-.31-1.76-.16-2.41-.48,1.14-.09,6.97-.54,10.15.18.57.37,1.54.58,1.08l-.08-1.01c.43-.93.6,1.9.8.62.3,1.35.78,2.86.54,4.77l-.61.36c.18-.04.37-1.24.18-1.78.27.79-.83,2.92-.03,3.78l.42-1.33c.31,1.36.96,3.03.77,4.72.61-.77-.07-.39.64-1.59-.88,1.04.04-4.31-.89-2.64.82-1.23.35-2.13,1.05-3.73-.2.05-.39.57-.29-.85-.06-.06-.13-.21-.18-.31,0-.04,0-.06.02-.1,0,.03-.02.05-.02.08-.03-.06-.04-.07,0,.03-.09.34-.19.61-.31.72-.46-.7-.45-2.95-.69-3.71.1-.84.23.35.45-.11l-.36-1.14c.45-.11.75-2.23,1.01-.25l.02-1.78c.25-1.05.35-2.49.16-3.38.1-.84-.5-2.12-.15-1.39l-.28-2.79.11-.03c.06-2.75-.74-5.67.07-8.82-.11-.93-.25-1.89-.12-3.44l.39-.3c-.14-1.19.39-3.58-.02-4.09,1.05-1.28.23-5.78.41-7.87l-.51-.08c.03-1.44-.12-2.82-.32-4.61l-.45.11c-.37-1.54.32-3.97.27-6.41.17.17.13.78.02,1.22,1.01-2.91-.74-6.15,0-8.79-.16-.66-.11-1.14,0-1.6,0,.06,0,.12.02.16,0-.07,0-.17,0-.27.08-.29.17-.59.24-.91-.11.28-.2.54-.24.77,0-.51-.07-1.28-.18-2.03l.48-.32c0-.06,0-.11-.01-.17.18-.74-.23-.6-.59-.2-.08-.38-.17-.73-.29-1,.78-.6-.26-1.98.57-2.8-.4-.51-.3-3.8-1.15-4.2.11-.03.16-.25.17.16.1-.84.19-1.68-.05-2.44l.61-.36-.82-1.84c.37-1.12.59-1.58,1.06-.47-.72-2.68-.27-2.17-.99-4.45l.4.11c-.02-.81-.55-2.12-.22-2.61.75-1.82.1-9.01.8-13.68-1.17.91.52-2.17-.38-2.36.28-.27.43-.92.67-.17-.27-2.39.44-3.58-.32-5.23.28-.27.4.51.57.27-.06-.19-.24-.76-.08-1.01.16-.24.23.35.35.73-.05-2.44-.9-2.68-1.69-2.86.37-1.3.19-2.2-.59-2.98.06-.27.06-.62.15-.71.07-.08.3.08.56.95-.07-.5-.48-2.04-1.32-3.24-.81-1.22-1.93-2.01-2.15-1.79-.07-.16-.34-.38-.63-.56-.29-.18-.61-.3-.74-.34-.96-.55-1.53-.76-2.1-.94-.57-.16-1.16-.33-2.25-.34l.59.14c-.46.37-.87.35-1.41.36-.27-.01-.57-.04-.9,0-.34,0-.71.07-1.11.21l.03-.09c-.98.12-1.56.36-1.93.53-.37.17-.53.33-.7.46-.17.13-.32.27-.65.5-.17.11-.38.24-.64.43-.27.18-.59.42-.98.74l.5.16c.26.48-.39.94-1.11,1.76-.73.79-1.48,2.03-1.42,3.2.14-.26.25-.51.41-.75.01.31-.06.65-.24,1.03-.13.36-.36.84-.56,1.21-.41.76-.88,1.52-.95,2.06-.09.24-.14-.38-.21-.71-.61,2.85.63.37.77,2.5-.34.39-.86-.51-.92.93-.27.71,1.1,4.15.45,6.1.26-.43.52-.86.72.13.09,1.51-.99,4.09-.16,5.46-.07.19-.14.27-.2.27.21,1.16.35,3.76.8,4.46-1.66,1.07.81,7.19-.72,7.17l.08,3.56-.16-.09c-.1,2.27.27,3.08.63,3.88-.1.53-.25.14-.33.1-.31,3.32-.24,3.65.52,6.44l-.5.29c.29.76-.78,4.8-.2,8.06-.06-.03-.15-.1-.22-.36.58,3.67-1.38,8.78.43,10.12l.44,2.42c.14-3.13.78.47,1.08-.82.11,1.23-.54,3.18-.64,1.67l.09-.24c-.94-.56-.33,3.89-.97,3.81.05,6.16-.47,12.17-.51,17.94l.73-.66-.04,2.01c-.17.53-.57.71-.54-.73-.41.76.35,2.41.51,2.45-.3,2.81-.85-1.1-.87-.24l.05,1.17.09-.26c.3.95.62,1.03.58,2.76-.15,1.09-.45.56-.48.99-.05,0-.08.14-.02.66l-.06,2.54.58-1.01c.28,1.12-.03,2.38.62,1.21-1.01,1.72-.36,9.46-.68,10.52.42,1.57.41,3.13.36,5.05.12-.48.77-.77.69.9-1.34-.61-.58,3.04-1.55,4.38.64-1.2.16,4.72,1.07,2.84-.11,1.39-.5.08-.82,1.14.52,3.3-.34,7.27-.16,11.34.18.06.44-.62.71.26l-.88,2.15c.09.8,1.02.74.4,2.21.15-.21.37-.52.43.02-.43,3.99-.25,8.07-.17,12.17.04,2.05.06,4.1-.04,6.15l-.09,1.53c-.04.51-.1.98-.11,1.66-.03,1.25.14,2.53.51,3.79-.23-1.42.13-.55.61.36-.22-.64.39-.19.54-.42.41,1.26,1.1,2.47,2.04,3.51.51-.02,1.36.63,2.33,1.04.95.44,1.95.65,2.21.38-.41-.06-.83-.11-1.23-.22.9-.1.42-.67-.02-1.32-.23-.32-.44-.7-.56-1.01-.1-.34-.11-.62.05-.8-.81.01-1.42-.87-1.79-1.8-.4-.97-.61-1.88-1.43-2.81.11-.51.38.33.56.03-.26-.2-.43-.49-.52-.87-.03-.2-.06-.39-.05-.67.01-.3.04-.62.09-1l.1.17c-.1-4.19.3-5.98.57-10.68l-.47.35c.06-1.01.21-1.22.33-1.7-.72-1.16-.04,2.84-.83,1.78.96-1.34.01-7.13,1.11-8.03,0-1.55-.55.46-.54-1.1l.3-.41-.38-.39c.06-1.02.43-1.53.68-1.57-.03.25.07.7.09.97.35-1.32-.12-3.73,0-4.18l-.18,1.49c-.28-4.24.11-9.42-.49-13.52l-.22.31c-.41-3.13.25-2.51.05-5.94l.05.12c-.22-.69-.33-1.61-.31-2.55.26.87.51-1.63.8-.49-.44-3.39-.35-1.68-1.18-3.92l.37-.52c-.34-.76-.51-.83-.61-2.54.32,1.41.57-1.1.99.48.81-3.6-.82-5.35.37-7-1.03-1.65-.57,3.12-.79,2.19-.34.78-.77-1.37-.66-2.5.02-1.15,1.31-1.96,1.29-4.85,0,.29.07.31.07.59.26-1.08-.35-2.12.07-3.45-.62-.74.04-1.73-.76-1.94l.18,2.65c-.21-1.51-1.13-2.92-.68-5.4.16.19.37.93.49,1.44.23-.73-.15-1.4.08-2.15.79.21.17,3.23.78,4.84.33-.78-.57-3.05.28-2.24-1.09-1.16.14-2.85-.7-4.81l.47.13c-.07-.31-.3-.95-.29-1.52l.62,1.03c-.52-1.59.46-3.06.17-4.58.01,3.19-.57.72-.92,2.06-.64-3.93,1.24-2.26,1.01-6.66.07.6-.29,2.24-.5,1.3.1-.84.28-1.94.53-2.46-.1-2.92-.49.45-.78-.79.58-.99-.24-1.43-.42-2.71h.48c.31-3.33-1.01-.89-.63-3.88l.67,1.26-.17-1.56.55.32c-.41-1.7-.3-2.22-.15-3.89-.34.39-.88-.22-.89-1.69.29-1,.46.56.39-1.52.3.47.68.99.24,1.89.16.09.3.46.46.56.33-1.08.08-2.72.07-3.47-.02.29-.04.64-.11.82l-.67-3.02c.18-.48.33-.1.47.28-.05-.61-.27-1.04-.32-1.94.39.23.8.18.98,1.45l-.44-2.88c.17-.19.47-1.48.61-1.1.23-1.6-.76-3.92-.46-6.04-.08-.11-.15-.33-.21-.78.09-1.99.57-3.75.03-6.11l.7-1.34c-.16-1.85-.89,1.81-1.15-1.26-.22-2.18.6-.81.8-1.58-.35-1.08-1.08-2.97-.5-4.97.13.66.03,1.18.08,1.8ZM292.57,483.61c.1.44.41,1.32.13,1.64-.55-.5-.29-.89-.13-1.64ZM305.94,478.87c-.16-.33-.08-.84.1-1.41.04.42.02.89-.1,1.41ZM309.3,575.36s-.01-.03-.02-.05c.19-.98.11-.64.02.05ZM309.09,577.4c.07.21.13.19.2.1-.12-.14-.13-.6-.1-1.12-.13.15-.21.41-.11,1.02ZM288.45,570.06l.13-.4c.14.9.01.65-.13.4Z"/>
      <path class="st2" d="M305.08,475.37c.05-.12.13-.17.22-.21-.11-.12-.2-.09-.22.21Z"/>
      <path class="st2" d="M293.13,520.57v.07s.05.06.08.07l-.08-.14Z"/>
      <path class="st2" d="M305,545.72c.07-.42.16-.66.25-.81-.12-.02-.22.17-.25.81Z"/>
      <path class="st2" d="M309.91,588.24l-.13-1.31c.02.63-.08.86-.16,1.18.11-.03.28-.28.28.13Z"/>
      <path class="st2" d="M306.93,599.61c.06.19,0,.41.07.59l.22-.05c-.01-.82-.2-1.39-.29-.54Z"/>
      <path class="st2" d="M308.31,589.45c-.41.1-.27.93-.19,1.84,0-.06,0-.11,0-.16.57.27.38-.71.19-1.68Z"/>
      <path class="st2" d="M308.13,591.51c.02.28.03.57.01.85.23.11.05-.34-.01-.85Z"/>
      <path class="st2" d="M309.36,580c-.1.43.52.27.35.52.52.49-.62-2.9-.35-.52Z"/>
      <polygon class="st2" points="306.97 590.19 307.47 589.87 307.07 589.35 306.97 590.19"/>
      <path class="st2" d="M307.34,582.95l-.14,1.47c.08-.02.13.16.17.39.02-.9.12-1.89-.03-1.86Z"/>
      <path class="st2" d="M307.37,584.81c0,.47,0,.92.08,1.18,0-.25-.02-.8-.08-1.18Z"/>
      <polygon class="st2" points="306.82 588.19 306.93 587.76 306.96 586.72 306.82 588.19"/>
      <path class="st2" d="M307.44,567.19l-.14-1.6c-.17-.16-.28.27-.21.87.12.38.19.98.35.73Z"/>
      <path class="st2" d="M306.07,572.03c.1-.43.22-.46.38-.71l-.62-.05.24.75Z"/>
      <path class="st2" d="M305.92,567.36c-.17-.16-.49-2.32-.46-.29.17.16.31,1.77.46.29Z"/>
      <polygon class="st2" points="306.71 543.25 306.71 543.66 307.73 543.6 306.71 543.25"/>
      <path class="st2" d="M304.27,522c-.24,1.9.63.45.32,2.16.24.45.25-1.4.46-.94-.25-1.14-.11-1.75-.78-1.22Z"/>
      <path class="st2" d="M305.05,523.22c.04.18.09.38.15.58-.06-.33-.11-.49-.15-.58Z"/>
      <path class="st2" d="M294.43,644.71c.46.25.93.53,1.44.72-.31-.19-.6-.41-.87-.64-.19-.03-.38-.04-.57-.08Z"/>
      <path class="st2" d="M297.45,644.75c.09.23.18.47.29.68l.48-.27.23-.14.11-.07.06-.03.03-.02h.01s0-.01,0-.01h0s0,0,0,0h0s0,0,0,0h0s0-1.76,0-1.76v1.76h0s0,0,0,0h0s0,0,0,0h-.02s-.03,0-.03,0h-.07c-.05,0-.1,0-.16,0-.11,0-.23,0-.35,0-.24-.01-.46-.05-.58-.15Z"/>
      <path class="st2" d="M293.87,480.22l-.16-.09c-.17.19-.18.47-.21,1.05l.36-.95Z"/>
      <polygon class="st2" points="293.39 496.76 293.4 496.48 292.81 497.01 293.39 496.76"/>
      <path class="st2" d="M294.14,510.64c.02-.57-.11-1.23-.08-1.8.11,1.23-.65,1.95.08,1.8Z"/>
    </g>
  </g>
  <g>
    <rect class="st0" x="265.64" y="479.66" width="66.07" height="19.62" rx="9.81" ry="9.81"/>
    <g>
      <path class="st2" d="M322.12,501.71c-.28-.02-.18.39-.23.47.49-.11.21-.58.23-.47Z"/>
      <path class="st2" d="M326.32,499.86v.19c.14-.22.27-.44.4-.65l-.4.47Z"/>
      <path class="st2" d="M329.68,497.64c-.39-.13-.62.13-.88.45-.27.3-.53.72-.92.78l-.19-.08.02.66c.76-.52,1.39-1.54,1.96-1.82Z"/>
      <path class="st2" d="M332.35,496.9c-.32-.04.12-.56-.41.4.06-.03.08-.03.12-.04.06-.08.14-.19.29-.37Z"/>
      <path class="st2" d="M332.06,497.27c-.28.4.38-.11,0,0h0Z"/>
      <path class="st2" d="M333.13,495.32c-.01.23-.06.45-.1.67.22-.03.53-.52.53-.27.18-.67-.04-.61-.44-.4Z"/>
      <path class="st2" d="M332.91,494.56l-.04.33c.09-.02.15-.09.04-.33Z"/>
      <path class="st2" d="M332.75,495.59c.06-.23.08-.47.12-.7-.14.03-.35-.07-.06.31-.17-.15-.03.07-.05.39Z"/>
      <path class="st2" d="M332.46,495.86c-.31.22-.62.52-.51-.12-.24.51-.3.78-.16.82.13.04.42-.17.68-.71Z"/>
      <path class="st2" d="M329.32,496.97l-.43.11-.09.41c.05-.2.7-.37.52-.52Z"/>
      <path class="st2" d="M334.74,491.67c-.14-.06-.43.14-.63.15.04.16.05.32.07.49.17-.2.33-.64.56-.64Z"/>
      <path class="st2" d="M334.11,491.82l-.15-.71c-.12.59-.02.72.15.71Z"/>
      <path class="st2" d="M332.24,494.13c.01.38.04.79.01,1.19.06-.46.05-.93.07-1.37l-.08.18Z"/>
      <path class="st2" d="M334.93,488.93l.37.4c-.19-.25-.38-.48-.57-.71l.2.31Z"/>
      <path class="st2" d="M334.68,487.14c.34.25.42-.51.64-.22-.14-.5-.52-.87-.83-1.17.22.36.33.8.18,1.39Z"/>
      <path class="st2" d="M333.98,485.24c.13.16.33.32.51.5-.11-.19-.29-.36-.51-.5Z"/>
      <path class="st2" d="M334.13,489.97c.09-.05.34-.14.45-.53l-.44.27c0,.08-.01.17-.02.27Z"/>
      <path class="st2" d="M334.14,489.71h.01c.03-.3.01-.5.02-.58,0,.07.01.25-.03.58Z"/>
      <path class="st2" d="M334.13,490.04s0-.04,0-.07c-.04.02-.06.04,0,.07Z"/>
      <path class="st2" d="M333.18,492.71c-.13-.44-.2-1.22-.73-.6.22.32.53-.04.73.6Z"/>
      <path class="st2" d="M333.58,490.33c-.04.23-.09.45-.17.67.11,0,.3-.1.38.1-.06-.26-.12-.52-.22-.77Z"/>
      <polygon class="st2" points="333.46 489.99 333.58 490.33 333.63 490.07 333.46 489.99"/>
      <path class="st2" d="M333.96,486.57c-.27-.26-.34-.58-.5-.93.06.41.1.83.2,1.21.14.02.42.15.3-.28Z"/>
      <path class="st2" d="M334.11,488.1l-.03-.07s-.04.08.03.07Z"/>
      <polygon class="st2" points="331.75 482.33 331.72 482.42 331.79 482.39 331.75 482.33"/>
      <path class="st2" d="M333.6,486.93c-.01.31.1.47.27.62-.08-.22-.13-.45-.2-.7-.07-.01-.11,0-.06.08Z"/>
      <path class="st2" d="M333.39,484.3c0,.18,0,.38,0,.59.08-.2.13-.59,0-.59Z"/>
      <path class="st2" d="M334.18,487.92s.02.03.03.04c.08-.11.03-.09-.03-.04Z"/>
      <path class="st2" d="M334.18,487.92c-.08-.15-.21-.26-.32-.37.06.18.13.34.22.49.02-.04.06-.09.1-.12Z"/>
      <path class="st2" d="M328.98,483.25c.33-.25,1.04.05,1.02.76.52.31,1.49-.68,1.72-1.59-.15.09-.29.17-.87-.22-.01.33.45,1.45-.16,1.22-.66-.53-.28-.62-.38-1.07-.16.56-1.23-.29-1.62.36l.63.31c-.08.08-.37.03-.33.23Z"/>
      <path class="st2" d="M332.4,483.56c.06.07.13.15.18.23-.1-.32-.09-.59-.06-1.15-.42-.32-.62-.29-.74-.25.28.38.48.82.72,1.23l-.1-.06Z"/>
      <path class="st2" d="M333.13,484.95c-.47-.06-.93-.55-1.18,0,.34.69.53.36.89.75-.55-1.19.36.28.25-.71.16.22.27.44.36.65-.03-.25-.06-.5-.06-.74,0,.02,0,.03-.01.04h0s0,0,0,0c-.03.08-.05.11-.05.03,0,0-.01-.02-.02-.02-.06.01-.12,0-.17,0-.06-.4.08-.1.17,0,.02,0,.04,0,.07,0h0c-.23-.42-.53-.79-.79-1.16.07.29.26.6.55,1.17Z"/>
      <path class="st2" d="M331.68,491.29s.07-.02.1-.02c-.04-.08-.07-.11-.1.02Z"/>
      <path class="st2" d="M332.01,490.87c.05.09.21.19.12.45-.16.21-.2-.04-.34-.05.09.18.19.63.5.15l-.04-.09c.23-.43.84-1.02.87-.94-.39.12-.68.22-1.11.47Z"/>
      <path class="st2" d="M332.86,488.09c-.13-.33-.23-.66-.38-.98-.07.19-.17.39-.27.57l.22-.06c0,.58.25.42.44.47Z"/>
      <path class="st2" d="M331.84,482.09l.46-.14c-.31-.06-.62-.11-.92-.15l.46.29Z"/>
      <polygon class="st2" points="330.83 480.98 331.16 480.75 330.71 480.62 330.83 480.98"/>
      <path class="st2" d="M268.22,487.78l.06.22c0-.1-.03-.17-.06-.22Z"/>
      <path class="st2" d="M268.73,486.4l-.16-.12c.07.11.13.17.16.12Z"/>
      <path class="st2" d="M300.45,477.17c-.39-.37-.83-.94-.79-.5l.12.43c.28-.08.49-.03.67.06Z"/>
      <path class="st2" d="M280.32,479.76l.12.13c.1-.15.18-.29.27-.41-.12.09-.25.18-.38.28Z"/>
      <path class="st2" d="M280.04,481.55l-.52-.28c.12.1.28.19.52.28Z"/>
      <path class="st2" d="M270.92,494.75c.15-.06.3-.12.45-.2-.26-.21-.29.05-.45.2Z"/>
      <path class="st2" d="M317.59,477.28c-.34-.17-.61-.24-.85-.26.41.25.74.62.85.26Z"/>
      <path class="st2" d="M263.98,485.81c0,.22.08.33.17.35-.02-.22-.06-.36-.17-.35Z"/>
      <path class="st2" d="M315.75,477.02c.06.04.12.07.18.1.25-.07.5-.13.8-.1-.3-.19-.65-.3-.98,0Z"/>
      <path class="st2" d="M307.31,496.81s.06.03.09.05c0-.06-.03-.06-.09-.05Z"/>
      <path class="st2" d="M318.61,501.18c-.11.03-.29.03-.46.03.08.03.22.03.46-.03Z"/>
      <path class="st2" d="M325.83,477.58c.32.08.06-.03,0,0h0Z"/>
      <path class="st2" d="M326.55,479.72c-.07.02-.14.05-.19.14.06-.08.13-.13.19-.14Z"/>
      <path class="st2" d="M313.23,479.72h-.02c.08.08.06.07.02,0Z"/>
      <path class="st2" d="M326.22,477.93c-.09-.09-.21-.18-.34-.26.05.05.16.14.34.26Z"/>
      <path class="st2" d="M326.23,477.72c.1.05.18.1.25.14.07-.05.05-.11-.25-.14Z"/>
      <path class="st2" d="M325.4,477.47c.18.04.34.11.49.2-.05-.05-.07-.08-.05-.09-.09-.03-.22-.07-.44-.11Z"/>
      <path class="st2" d="M286.51,497.97s.04.02.05.04c.26-.18.14-.15-.05-.04Z"/>
      <path class="st2" d="M293.84,481.67s.02-.02.03-.02l-.04-.02v.04Z"/>
      <path class="st2" d="M292.93,482c.39-.54.61-.47.9-.36l-.3-1.25-.6,1.61Z"/>
      <path class="st2" d="M268.38,491.26c.09-.19.16-.36.28-.53.74.4.62.75,1.05.25-.67.16-.81-.25-.89-.67-.09-.42-.13-.84-.81-.88l.3-.31c-.02.09.06.1.04.19.68-.54-.98-.51-.65-1.35.16-.27.41-.41.52-.19-.05-.22-.12-.46-.16-.7.09-.17.3-.05.21.11.09-.31.13-.64.26-.94l.03.02c-.13-.21-.3-.67-.32-.88.31-.13.06.19.24.21l.02-.66c.41,0,.46.58.22.87.73.12.69,0,.66-.23-.06-.23-.06-.58.56-.75-.07.16-.1.33-.15.49.78.22.79-.21,1.46-.21-.13-.06-.5-.1-.86-.17-.35-.08-.68-.2-.61-.53.19-.05.35-.19.41-.59.34.36.45.05.75-.19l.37.52c.19-.36-.03-.63.01-1,.43-.18.75.19,1.03.52.65-.19-.81-.49-.11-.96.65-.04.91-.4,1.58-.96.48.14,0,.39.19.55.09-.18.18-.37.29-.56.1,0,.09.16.08.24.3-.23-.07-.67.47-.87.06-.35.35-.12.74.12.42.25.91.48,1.31.08.2.18-.1.39-.04.64,1.11-.52.95-.38,1.87-1.09l.78.42c-.57-.48.16-1.05.8-1.52-.2-.23-.38-.44-.49-.53l1.02-.34c.12.1.02.32-.15.59.07-.05.14-.11.19-.15.36.24.18.61-.09.96-.12-.13-.25-.26-.37-.39-.25.39-.49.82-.44,1.19.07-.07.19-.14.33-.17-.07.11-.11.2-.08.26.03.07.14-.07.31-.24l.23.71.06-.28,1.33.45c.95-.72,1.79-1.77,3.3-2.07-.38.52-.08.85-.1,1.47-.41-.66-1.17.28-1.96.15.41.07.32.36.22.47l1.4-.6c-.03.51.3.38.66.59-.28-1,1.04-.67,1.61-.97.04.34-.1.68-.8.6.77.75.99-1.18,1.74-.54-.17,0-.26-.04-.33.13.4-.3,1.37-.06,1.14.23h-.17c1.13.13,3.43.01,3.6-.84.01.11-.15,1.03-.22,1.2l2.01-2.86c-.18.73.5,2.47-.43,2.88.27.1.6.23,1.17-.03-.18-.1-.46-1.06-.21-1.12.69.81.48.43,1.32,1.13-.27-.16.03-1.3.46-1.27-.07.17.04,1.13-.12,1.25l1.08-1.12c-.27.2-.05.95.19,1.27-.11-.22.93.02,1.22-.09l-.46-.26c1.22.17,1.2-1.58,2.41-1.52-.15.23-.36,1.43.25,1.57.28-.58,1.25-2.77,2.32-3.21l.21.33.82-.38c-.51.87-1.95,2.69-2.73,3.4.46.26.13.39.81.36.24.31-.37.47-.57.49l1.59.2c-.07-.67,1.22-.67,1.16-1.23l-1.73.7c-.07-.67,1-1.91,2.13-1.79.29.27-.21,1.2-.19,1.42.15-.23,1.07-.44,1.17-.28l-.48.36c.63.25,1.02-.89,1.78-.25.26.04.78.87.82.47-.42-.77-.51-3.14-.22-3.72.09.05,1.37.73,1.66,1.11.43.6-.64,1.43-.28,1.95.02-.18.25-.41.35-.48.27.16-.11.57.48.49.1-.68,1.21.06.28-.58.58-.19.62.14,1.3.11-.22-.44.61-1.5,1.19-1.69-.03.17.1.4.16.5,1.19.06,1.83.37,2.94.38.1.16.64.36.41.66.16-.12.31-.35.65-.37.66.59-.76.09-.26.8.04-.4.89-.55,1.37-.79-.15-.61-1.13-.12-1.62.13,0-.84.85-1.73,2.01-2.12.92-.21.4.55.56.43,1.76.15,1.42-1.49,2.97-.85.63.57-.02,1.07.11,1.46-.77.16-1.16-.35-1.67-.34l.63.25c-.24.18-.74.31-1.01.16.24.25.97.25,1.81.29.82.03,1.76.21,2.31.6.27-.13.71-.15.6-.43-.14-.03-.29-.04-.43-.05-.28-.54.98-.33.5-.7.34-.04.72-.11,1.12-.09.39.04.8.17,1.14.49l-.16.62c.08-.17-.33-.61-.64-.54.5-.09.74,1.35,1.5.9-.08-.25-.19-.46-.29-.7.36.03.8.04,1.23.15.44.09.84.3,1.09.66.11-.72-.18-.08-.2-1.04-.06.51-.5.15-.92-.16-.41-.32-.84-.54-.72.07-.04-.51-.24-.73-.47-.95-.24-.2-.5-.39-.76-.9-.06.21.13.46-.53.09-.05.04-.16.08-.22.11-.02-.01-.03-.02-.04-.03l.03.04s-.05.02.01.01c.14.14.23.29.24.42-.26.15-.65.13-1.02.08-.37-.04-.75-.06-.96,0-.38-.2.22-.18.05-.45-.21.07-.42.14-.62.23.05-.45-1.02-.91.05-1.01-.31-.05-.62-.12-.94-.15-.27-.14-.6-.25-.92-.3-.36-.05-.53-.02-.74.07-.35-.1-.89.5-.58.15l-1.17.28v-.11c-1.17-.06-2.39.74-3.71-.07-.39.11-.79.25-1.44.12l-.13-.39c-.5.14-1.5-.39-1.72.02-.54-1.05-2.43-.23-3.31-.41l-.03.51c-.61-.03-1.19.12-1.94.32l.05.45c-.65.37-1.67-.32-2.69-.27.07-.17.33-.13.51-.02-1.22-1.01-2.58.74-3.69,0-.28.16-.48.11-.67,0,.03,0,.05,0,.07-.02-.03,0-.07,0-.11,0-.12-.08-.25-.17-.38-.24.12.11.23.2.32.24-.21,0-.54.07-.85.18l-.14-.48s-.05,0-.07.01c-.31-.18-.25.23-.08.59-.16.08-.31.17-.42.29-.25-.78-.83.26-1.18-.57-.21.4-1.59.3-1.76,1.15-.01-.11-.1-.16.07-.17-.35-.1-.71-.19-1.02.05l-.15-.61-.77.82c-.47-.37-.66-.59-.2-1.06-1.12.72-.91.27-1.87.99l.05-.4c-.34.02-.89.55-1.09.22-.76-.75-3.78-.1-5.75-.8.38,1.17-.91-.52-.99.38-.11-.28-.39-.43-.07-.67-1,.27-1.51-.44-2.2.32-.11-.28.21-.4.11-.57-.08.06-.32.24-.42.08-.1-.16.15-.23.31-.35-1.02.05-1.13.9-1.2,1.69-.52-.38-.78-.32-1.15.2-.18-.26-.48-.53.15-.63-.36-.04-2.19-.38-2.22.26-.11-.16-.5-.05-.59.03-.8-.04-.87-.1-1.66-.04l.22.1c-.3.76-.68.19-1.38.32v-.08c-1.69-.31-.61.31-2.34.1l.23.43c.08.51-.27.48-.77.42-.49-.06-1.14-.09-1.45.31.14.02.28.05.42.08-.14.26-.59.14-1.13-.02-.54-.17-1.12-.29-1.39-.17-.15,0,.07-.23.17-.39-1.58.44.2.6-.51,1.41-.38-.11-.38-.82-.99-.35-.24.03-.42.65-.66,1.25-.21.64-.45,1.27-.97,1.55.34-.06.67-.09.58.42-.16.33-.58.67-.95,1.06-.34.4-.57.88-.29,1.32-.09.07-.17.09-.23.07.02.62-.06,1.92.37,2.28-.84.17-.71,1.12-.42,1.91.29.79.65,1.44-.09,1.6.17.57.34,1.14.59,1.68h-.16c.34,1.12.88,1.32,1.39,1.45.04.27-.18.19-.26.21.6,1.54.87,1.69,2.31,2.09l-.24.45c.23.02.52.56,1.05,1.13.51.57,1.29,1.14,2.15,1.21-.04.04-.11.12-.25.13.95.11,1.88.77,2.84,1.11.93.37,1.86.39,2.13-.5l1.02-.44c-1.31-.14.2-.78-.35-1.08.52-.11,1.34.54.7.64l-.1-.09c-.23.94,1.63.33,1.6.97,2.59-.05,5.11.47,7.53.51l-.28-.73.85.04c.22.17.3.57-.31.54.32.41,1.01-.35,1.03-.51,1.18.3-.46.85-.1.87l.49-.05-.11-.09c.4-.3.43-.62,1.16-.58.46.15.24.45.42.48,0,.05.06.08.28.02l1.07.06-.43-.58c.47-.28,1,.03.51-.62.72,1.01,3.97.36,4.42.68.66-.42,1.31-.41,2.12-.36-.2-.12-.32-.77.38-.69-.25,1.34,1.28.58,1.84,1.55-.5-.64,1.98-.16,1.19-1.07.58.11.04.5.48.82,1.38-.52,3.05.34,4.76.16.03-.18-.26-.44.11-.71l.9.88c.34-.09.31-1.02.93-.4-.09-.15-.22-.37,0-.43,3.35.86,6.85-.7,10.26.91-.46-.34-.15-.37.2-.39-.23-.08,0-.43-.04-.67l1.43.66c.26-.66,1.53-.04,1.68-.68l-.45.11c.6-.75-.84-1.66-.75-2.62-.67.85-1.77-1.26-2.88-.04-.24-.2.21-.31.08-.53-.28.41-.62.5-1.24.31l.07-.1c-1.76.1-2.51-.3-4.49-.57l.15.47c-.42-.06-.51-.21-.71-.33-.49.72,1.19.04.75.83-.56-.96-2.99-.01-3.37-1.11-.65,0,.19.55-.46.54l-.17-.3-.16.38c-.43-.06-.64-.43-.66-.68.1.03.3-.07.41-.09-.56-.35-1.57.12-1.76,0l.63.18c-1.78.28-3.96-.11-5.68.49l.13.22c-1.31.41-1.05-.25-2.5-.05l.05-.05c-.29.22-.67.34-1.07.31.36-.26-.69-.51-.21-.8-1.43.44-.71.35-1.65,1.18l-.22-.37c-.32.34-.35.51-1.07.61.59-.32-.46-.57.2-.99-1.51-.81-2.25.82-2.94-.37-.69,1.03,1.31.57.92.79.33.34-.57.77-1.05.66-.48-.02-.82-1.31-2.04-1.29.12,0,.13-.07.25-.07-.45-.26-.89.35-1.45-.07-.31.62-.72-.04-.81.76l1.11-.18c-.63.21-1.22,1.13-2.27.68.08-.16.39-.37.6-.49-.3-.23-.59.15-.9-.08.09-.79,1.35-.17,2.03-.78-.33-.33-1.28.57-.94-.28-.49,1.09-1.2-.14-2.02.7l.05-.47c-.13.07-.4.3-.64.29l.43-.62c-.67.52-1.28-.46-1.92-.17,1.34-.01.3.57.87.92-1.65.64-.95-1.24-2.8-1.01.25-.07.94.29.55.5-.35-.1-.82-.28-1.03-.53-1.22.1.19.49-.33.78-.42-.58-.6.24-1.14.42v-.48c-1.4-.31-.37,1.01-1.63.63l.53-.67-.65.17.14-.55c-.71.41-.93.3-1.63.15.15.34-.08.87-.6.86-.33-.32.22-.42-.48-.44.2-.27.38-.63.65-.18.04-.16.16-.29.2-.45-.32-.33-.81-.14-1.05-.18.08.03.18.07.23.15-.34.19-.71.33-1.1.45-.11-.21.06-.32.21-.43-.2,0-.4.18-.69.11.2-.35.32-.71.73-.79-.31.07-.62.09-.96.12,0-.19-.2-.62-.04-.7-.16-.19-.47-.17-.84-.18-.35-.02-.74-.09-.89-.42-.07.03-.17.04-.31,0-.42-.5-.36-1.18-1.19-1.48.13-.24.26-.48.4-.7-.19-.19-.33.02-.5.22-.15.18-.36.37-.7-.03-.52-.55.43-.48.52-.77-.21-.08-.56-.2-.79-.42-.2-.22-.36-.53-.11-.9.15.18.1.36.2.53ZM269.77,484.42c-.03.17.04.58-.24.49-.34-.47-.05-.42.24-.49ZM281.73,480.69c-.14.16-.35.08-.59-.1.17-.04.37-.02.59.1ZM322.33,477.35s-.02.01-.03.02c-.51-.21-.33-.13.03-.02ZM323.36,477.63c.11-.05.11-.12.08-.19-.09.11-.32.08-.59.04.07.13.19.21.51.16ZM289.22,501.22l-.17-.13c.38-.14.27-.01.17.13Z"/>
      <path class="st2" d="M280.08,481.35c-.05-.08-.07-.17-.08-.26-.07.08-.07.17.08.26Z"/>
      <path class="st2" d="M270.84,494.79v.02s.06-.03.08-.05l-.08.03Z"/>
      <path class="st2" d="M309.8,481.63c-.18-.07-.28-.16-.34-.25,0,.12.07.22.34.25Z"/>
      <path class="st2" d="M328.96,478.87l-.67-.27c.31.16.35.31.46.46.05-.1.02-.31.22-.2Z"/>
      <path class="st2" d="M330.48,484.82c.09.04.08.15.17.19l.19-.12c-.16-.32-.47-.41-.36-.07Z"/>
      <path class="st2" d="M328.54,480.54c-.21.36.2.45.56.7-.02-.02-.04-.03-.06-.05.47-.34,0-.53-.5-.64Z"/>
      <path class="st2" d="M329.18,481.29c.11.07.22.16.3.26.2-.13-.09-.15-.3-.26Z"/>
      <path class="st2" d="M324.73,477.61c.19.16.27-.47.35-.27.36-.45-1.64.24-.35.27Z"/>
      <polygon class="st2" points="327.99 481.8 328.19 481.32 327.76 481.51 327.99 481.8"/>
      <path class="st2" d="M325.49,479.96c.18.12.37.23.53.37.03-.08.12-.09.23-.08-.34-.2-.72-.43-.76-.29Z"/>
      <path class="st2" d="M326.24,480.25c.18.1.36.17.5.15-.1-.04-.33-.14-.5-.15Z"/>
      <polygon class="st2" points="327.23 481.42 327.13 481.24 326.78 480.99 327.23 481.42"/>
      <path class="st2" d="M318.82,479.19l-.67.14c-.07.17.11.28.36.21.16-.12.41-.19.31-.35Z"/>
      <path class="st2" d="M320.85,480.56c-.18-.1-.19-.22-.3-.38l-.02.62.32-.24Z"/>
      <path class="st2" d="M318.89,480.71c-.07.17-.98.49-.12.46.07-.17.74-.31.12-.46Z"/>
      <polygon class="st2" points="308.76 479.92 308.93 479.92 308.91 478.9 308.76 479.92"/>
      <path class="st2" d="M299.84,482.36c.8.24.19-.63.91-.32.19-.24-.59-.25-.4-.46-.48.25-.73.11-.51.78Z"/>
      <path class="st2" d="M300.35,481.58c.08-.04.16-.09.25-.15-.14.06-.2.11-.25.15Z"/>
      <polygon class="st2" points="320.49 501.73 321 501.94 320.67 501.6 320.49 501.73"/>
      <path class="st2" d="M321.47,500.98l.12.65.31-.59c-.12.03-.34.08-.43-.06Z"/>
      <path class="st2" d="M271.4,484.64l-.08-.14c-.15-.09-.21-.05-.35.04l.44.09Z"/>
      <polygon class="st2" points="268.75 488.36 268.78 488.28 268.17 488.35 268.75 488.36"/>
      <path class="st2" d="M269.96,491.98c-.05-.14-.23-.25-.25-.4.19.26-.39.74.25.4Z"/>
    </g>
  </g>
  <g>
    <ellipse class="st1" cx="298.67" cy="586.02" rx="32.93" ry="35.68"/>
    <g>
      <path class="st2" d="M334.03,585.75c-.02.34.39.22.47.27-.12-.57-.58-.25-.47-.27Z"/>
      <polygon class="st2" points="332.64 580.32 332.83 580.39 332.3 579.66 332.64 580.32"/>
      <path class="st2" d="M331.64,575.32c-.58.65.54,1.77.5,2.71l-.13.18.66.29c-.34-1.07-1.05-2.37-1.03-3.18Z"/>
      <path class="st2" d="M332.25,572.22c-.21.26-.42-.5.13.65,0-.07.02-.09.03-.14-.04-.11-.09-.26-.16-.52Z"/>
      <path class="st2" d="M332.41,572.73c.2.52.1-.42,0,0h0Z"/>
      <path class="st2" d="M331.37,570.37l.53.58c.09-.2-.14-.82.07-.64-.43-.65-.52-.44-.59.06Z"/>
      <path class="st2" d="M330.61,569.94l.25.3c.04-.09.02-.19-.25-.3Z"/>
      <path class="st2" d="M331.38,570.89l-.53-.65c-.06.14-.27.24.22.3-.22.02.03.09.31.34Z"/>
      <path class="st2" d="M331.45,571.36c-.01.44.06.97-.4.37.53,1.27.95.92.4-.37Z"/>
      <path class="st2" d="M330.86,575.27l-.08.56.34.38c-.17-.19-.05-1.03-.25-.94Z"/>
      <path class="st2" d="M329.69,566.08c-.16.03-.23.41-.38.55l.42.39c-.04-.29-.22-.8-.04-.94Z"/>
      <path class="st2" d="M329.31,566.63l-.62-.57c.32.64.5.69.62.57Z"/>
      <polygon class="st2" points="329.83 570.14 330.86 571.12 329.72 569.92 329.83 570.14"/>
      <polygon class="st2" points="328.08 563.39 328.64 563.59 327.73 563.19 328.08 563.39"/>
      <path class="st2" d="M326.85,561.72c.43.11.12-.69.48-.49-.37-.44-.91-.64-1.35-.84.38.29.72.66.88,1.33Z"/>
      <path class="st2" d="M325.25,560.03c.2.13.45.23.72.35-.21-.15-.44-.27-.72-.35Z"/>
      <path class="st2" d="M328.09,564.83c.05-.11.18-.33.01-.76l-.18.49c.05.08.12.17.17.27Z"/>
      <path class="st2" d="M327.91,564.58v-.02c-.18-.29-.31-.49-.36-.58.05.07.15.25.36.59Z"/>
      <path class="st2" d="M328.12,564.9s-.02-.04-.04-.07c-.02.05-.02.07.04.07Z"/>
      <path class="st2" d="M329.33,568.09c-.44-.3-1.13-1.01-1.01-.04.42.15.34-.41,1.01.04Z"/>
      <path class="st2" d="M327.86,565.52l.33.78c.09-.07.16-.29.37-.14l-.7-.64Z"/>
      <polygon class="st2" points="327.54 565.23 327.86 565.52 327.74 565.23 327.54 565.23"/>
      <path class="st2" d="M325.89,561.42c-.38-.17-.65-.47-.97-.8.25.43.54.84.84,1.21.15-.03.48-.01.13-.41Z"/>
      <path class="st2" d="M326.86,562.97s-.05-.04-.07-.05c0,.06.01.1.07.05Z"/>
      <polygon class="st2" points="321.85 557.34 321.85 557.45 321.91 557.41 321.85 557.34"/>
      <path class="st2" d="M325.75,561.94c.15.34.35.46.58.55-.2-.2-.37-.43-.57-.67-.07.01-.1.03-.01.11Z"/>
      <path class="st2" d="M324.28,559.19c.06.21.14.43.24.65-.02-.23-.11-.67-.24-.65Z"/>
      <path class="st2" d="M326.82,562.74s.03.02.05.03c0-.15-.02-.11-.05-.03Z"/>
      <path class="st2" d="M326.82,562.74c-.16-.12-.33-.18-.49-.25.15.16.31.31.46.42,0-.05.01-.12.03-.17Z"/>
      <path class="st2" d="M319.05,558.49c.32-.28,1.24.07,1.49.94.75.33,1.33-.94,1.31-1.98-.14.11-.25.22-1-.19.07.37.96,1.65.22,1.42-.91-.6-.52-.73-.78-1.23.01.65-1.53-.32-1.81.39l.88.38c-.06.1-.44.02-.31.26Z"/>
      <path class="st2" d="M322.97,558.61l.28.21c-.23-.33-.32-.63-.48-1.23-.55-.27-.74-.25-.86-.18l1.18,1.24-.13-.04Z"/>
      <path class="st2" d="M324.29,559.97c-.5.07-1.16-.42-1.18.27.66.74.72.29,1.24.63-1.12-1.17.48.2-.09-.86.26.2.47.41.66.61-.15-.26-.28-.52-.4-.78,0,.02,0,.03,0,.05h0s0,0,0,0c0,.09,0,.13-.03.05,0,0-.02-.01-.03-.02-.05.03-.11.04-.17.05-.24-.42.04-.13.17-.05.02,0,.04-.01.06-.03h0c-.42-.38-.81-.76-1.28-1.08.21.28.52.59,1.04,1.16Z"/>
      <path class="st2" d="M327.1,567.76c0-.06.04-.07.06-.09-.1-.06-.15-.08-.06.09Z"/>
      <path class="st2" d="M327.01,567.08c.11.07.3.07.45.41.04.34-.18.1-.3.18.21.14.65.53.49-.18l-.11-.07c-.18-.62-.12-1.61-.02-1.55-.24.36-.4.65-.52,1.2Z"/>
      <path class="st2" d="M325.74,563.52c-.31-.32-.61-.65-.94-.96.05.24.06.51.1.77l.16-.16c.35.67.49.37.68.35Z"/>
      <polygon class="st2" points="321.89 557.08 322.33 556.87 321.32 556.79 321.89 557.08"/>
      <polygon class="st2" points="320.5 555.93 320.81 555.67 320.29 555.55 320.5 555.93"/>
      <path class="st2" d="M272.18,602.55l.27.25c-.11-.13-.2-.2-.27-.25Z"/>
      <path class="st2" d="M271.11,600.23l-.2.02c.15.07.24.08.2-.02Z"/>
      <path class="st2" d="M279.42,554c-.72,0-1.59-.03-1.26.29l.4.23c.27-.33.59-.44.86-.52Z"/>
      <path class="st2" d="M266.45,579.27l.15-.14c-.12-.16-.25-.31-.35-.44.05.17.13.37.2.58Z"/>
      <path class="st2" d="M268.17,579.95l-.37.64c.12-.14.24-.35.37-.64Z"/>
      <path class="st2" d="M281.3,612.79l.58-.1c-.48-.39-.41-.04-.58.1Z"/>
      <path class="st2" d="M303.93,548.42c-.48-.25-.88-.39-1.23-.47.59.35,1.01.8,1.23.47Z"/>
      <path class="st2" d="M267.57,603.68c.17.19.29.24.38.19-.17-.2-.3-.29-.38-.19Z"/>
      <path class="st2" d="M301.22,547.83c.09.05.17.08.26.12.38-.04.77-.11,1.22,0-.43-.28-.96-.38-1.48-.12Z"/>
      <path class="st2" d="M324.16,604.14s.06-.06.1-.07c-.04-.04-.07,0-.1.07Z"/>
      <path class="st2" d="M333.19,590.81c0,.16-.03.43-.06.68.05-.12.07-.32.06-.68Z"/>
      <path class="st2" d="M314.62,551.7c.35.15.08-.01,0,0h0Z"/>
      <path class="st2" d="M315.35,554.08c-.09,0-.17.02-.23.1.08-.07.16-.1.23-.1Z"/>
      <path class="st2" d="M297.5,550.46s-.02,0-.03,0c.11.08.09.06.03,0Z"/>
      <path class="st2" d="M315.04,552.14c-.1-.11-.23-.23-.37-.34.05.07.17.17.37.34Z"/>
      <path class="st2" d="M315.07,551.92c.11.08.2.14.28.19.08-.04.06-.1-.28-.19Z"/>
      <path class="st2" d="M314.14,551.47c.2.1.37.21.53.33-.05-.06-.07-.1-.04-.1-.1-.05-.25-.12-.49-.23Z"/>
      <path class="st2" d="M302.98,620.03s.05.01.08.03c.31-.23.17-.18-.08-.03Z"/>
      <path class="st2" d="M275.68,563.57s0-.03,0-.04c-.01,0-.03.02-.04.03h.04Z"/>
      <path class="st2" d="M275.16,564.69c-.1-.72.14-.91.48-1.13l-1.23-.48c.24.55.49,1.08.75,1.61Z"/>
      <path class="st2" d="M275.59,607.6c-.08-.29-.16-.58-.2-.89,1.1.41,1.4,1.04,1.34.13-1.22.8-1.91-2.46-3.13-1.8-.02-.2-.06-.4-.06-.61.06.15.15.12.22.26.01-1.24-1.23-.17-1.76-1.49-.15-.48-.14-.86.17-.65-.27-.26-.56-.52-.79-.8-.1-.3.14-.33.24-.03l-.76-1.46h.04c-.29-.13-.81-.5-1.05-.69,0-.46.22.14.33-.02-.24-.23-.43-.49-.63-.75.23-.48.73.14.96.72.92-1.26-.58-.59-.44-2.58l.43.75c.57-.77.06-1.29.26-2.32-.22.27-.56,2.15-1.2,1.33.02-.3-.09-.64-.45-1.1.46-.13.23-.6.06-1.23l.63-.11c-.34-.63-.64-.51-1.02-.85-.13-.77.36-1.03.74-1.28-.07-1.24-.66.99-.99-.46.05-.54-.02-.97-.17-1.43-.16-.45-.39-.93-.58-1.55.19-.75.4.1.57-.18l-.54-.62c0-.16.16-.12.24-.09-.22-.54-.64-.01-.86-.89-.35-.11-.14-.57.12-1.13.27-.56.54-1.19.16-1.75.19-.26.39.15.64.08-.44-1.5-.37-1.28-.88-2.57l.56-.98c-.58.69-1.01-.35-1.34-1.32-.27.24-.5.45-.62.59-.03-.49-.12-1-.11-1.49.14-.15.32.04.53.31-.03-.1-.06-.21-.09-.28.35-.45.65-.11.92.3-.17.14-.33.28-.48.42.33.42.71.8,1.09.79-.06-.1-.1-.28-.11-.48.09.11.18.18.25.15.07-.03-.05-.2-.18-.45l.76-.17-.26-.13.84-1.62c-.46-1.41-1.05-2.77-.66-4.89.32.68.76.41,1.33.66-.79.3-.24,1.59-.7,2.52.24-.5.48-.29.54-.13l.03-1.95c.47.22.47-.25.84-.62-1.08-.03-.05-1.52-.02-2.35.32.1.56.41.11,1.22,1.11-.61-.55-1.71.48-2.35-.11.2-.21.29-.09.45-.04-.62.84-1.64.94-1.23l-.1.2c.21-.31.45-.72.69-1.16.11-.22.23-.45.35-.68.13-.22.26-.44.38-.66.46-.87.74-1.7.46-2.05.1.05.71.77.8.95-.3-1.31-.41-2.57-.53-3.93.41.65,2.31,1.1,1.83,2.31.31-.21.68-.46.96-1.2-.23.11-1.18-.23-1.01-.54,1.19-.17.76-.19,2.04-.51-.37.14-.9-.94-.45-1.34.05.19.82.78.76,1.01.08-.6.16-1.21.26-1.84-.12.42.58.73,1.04.78-.26-.07.96-.75,1.19-1.08l-.63.18c1.35-.87.25-2.3,1.71-3.17-.04.31.4,1.45,1.15,1.12,0-.34-.03-1.15.1-2.05.12-.89.48-1.77,1.06-2.34l.41.16.89-.89c-.15.57-.48,1.5-.81,2.4-.34.89-.68,1.8-.9,2.39.64-.09.32.2,1.09-.23.43.14-.21.6-.39.79.6-.31,1.26-.52,1.87-.78-.39-.55,1.08-1.35.8-1.78-.6.51-1.15,1.11-1.7,1.64-.2-.27-.14-.84.16-1.43.3-.58.84-1.21,1.6-1.41.46.1.2,1.21.33,1.4.08-.28,1.14-.92,1.32-.82l-.45.57c.42-.03.65-.36.92-.66.27-.31.6-.54,1.17-.36.35-.05,1.21.56,1.16.16-.72-.6-1.53-2.83-1.28-3.5.15.02,2.08.14,2.57.51.69.5-.58,1.55.02,1.97-.02-.18.25-.46.36-.55.39.09-.04.58.72.37.01-.69,1.59-.21.27-.63.74-.31.83-.03,1.74-.14-.35-.42.69-1.54,1.52-1.78-.04.18.15.39.24.49.41,0,.78,0,1.12.02.34.04.65.11.96.17.62.12,1.21.23,1.97.28.06.09.27.19.42.3.15.13.23.27.07.39.23-.08.45-.28.91-.22.8.73-1.03-.08-.45.74.11-.38,1.24-.35,1.95-.48-.09-.63-1.51-.37-2.19-.23.09-.84,1.38-1.52,3.13-1.63,1.35.11.43.67.69.61,2.32.83,2.52-.92,4.29.46.58.81-.36,1.01-.33,1.44-1.05-.19-1.38-.95-2.1-1.09.26.17.52.31.77.5-.37.05-1.09.01-1.41-.25.26.32,1.24.58,2.3,1.07.54.22,1.11.46,1.65.71.52.27.98.61,1.34.91.37,0,.97.09.83-.22l-.56-.21c-.29-.64,1.28,0,.7-.54.43.05.91.08,1.4.2.48.13.94.39,1.36.8l-.15.63c.08-.16-.43-.72-.8-.74.56.04,1,1.65,1.89,1.28l-.43-.8c.43.1.96.16,1.48.3.49.17.97.41,1.32.82,0-.78-.23-.1-.38-1.13-.02.57-.51.1-1.04-.25-.52-.35-1-.67-.83,0-.18-1.1-.91-1.02-1.4-2.18-.09.21.13.49-.62-.01-.07.03-.19.05-.26.06-.02-.02-.03-.03-.05-.04l.03.04s-.06.01.01.02c.15.18.24.35.25.48-.62.2-1.84-.46-2.37-.46-.42-.32.29-.11.14-.43h-.78c.15-.46-.99-1.21.28-.99l-1.04-.44c-.52-.48-1.35-.92-1.94-.94-.47-.29-1.45.09-.89-.13l-1.78-.21v-.11c-.41-.12-.84-.23-1.29-.26-.45-.02-.91-.04-1.38-.06-.93-.04-1.84-.28-2.81-.69-.6.08-1.2.18-2.18,0l-.19-.4c-.75.08-2.3-.3-2.61.11-.44-.48-1.4-.56-2.38-.31-.99.21-2.01.54-2.69.57l.06.5c-.89.21-1.71.59-2.74,1.09l.2.41c-.2.16-.46.24-.75.33-.28.1-.6.17-.94.24-.68.14-1.45.27-2.15.58.03-.19.41-.3.7-.31-1.07-.16-1.86.5-2.59,1.12-.37.32-.72.63-1.1.88-.38.25-.74.49-1.18.55-.26.36-.53.48-.84.55.03-.02.06-.05.07-.08-.04.02-.09.05-.14.09-.2.04-.4.07-.62.12.21,0,.4-.02.54-.07-.26.18-.63.49-.96.85l-.44-.26s-.05.05-.08.08c-.47.15-.15.42.26.55-.14.21-.25.42-.3.62-.78-.37-.78.97-1.71.66-.02.46-1.52,1.85-1.09,2.61-.09-.07-.22,0-.05-.19-.43.29-.87.59-1.02,1.07l-.6-.25-.11,1.4c-.71.27-1.07.36-.99-.47-.26.87-.41,1.16-.55,1.44-.15.27-.26.53-.36,1.31l-.28-.29c-.27.42-.28,1.37-.72,1.43-.3.13-.69.45-1.05.95-.35.51-.72,1.15-1.12,1.84-.2.35-.41.7-.61,1.07l-.56,1.13c-.38.74-.81,1.44-1.24,2.05,1.27-.11-.92,1.09-.11,1.5-.31.07-.59.4-.67-.12-.11.75-.39,1.24-.6,1.7-.19.47-.26.91-.02,1.5-.31.1-.32-.41-.51-.3.03.13.12.52-.07.63-.19.11-.17-.27-.24-.53-.31,1.51.49,1.83,1.24,2.09-.56.65-.52,1.05-.09,1.66-.29.21-.62.61-.59-.32-.1.5-.85,3.11-.16,3.22-.17.15-.08.72-.01.86-.09,1.15-.15,1.26-.15,2.39l.12-.31c.73.45.17.94.3,1.85l-.08-.02c-.44,2.12.26.88-.18,2.99l.46-.16c1.05.07-.35,1.87.21,3.02l.21-.47c.39.57-1,2.06-.98,2.77-.05.17-.19-.19-.31-.38-.18,1.88.67.08,1.11,1.32-.27.33-.91-.09-.76.8-.14.53,1.86,2.12,1.63,3.48.16-.35.32-.68.7-.19.45.79.12,2.71,1.21,3.12-.02.14-.06.21-.11.24.53.53,1.44,1.86,2.03,1.99-.27.35-.25.75-.03,1.14.23.38.62.76,1,1.12.76.71,1.46,1.33.86,1.78l1.47,1.63-.15.06c.81,1.17,1.47,1.24,2.07,1.32.15.3-.11.23-.19.27.62.83.98,1.27,1.4,1.58.43.3.96.43,1.85.67l-.17.5c.28.02.7.67,1.38,1.34.69.64,1.58,1.38,2.58,1.68-.05.04-.13.1-.3.07,1.13.32,2.18,1.22,3.17,1.95,1.03.62,1.99,1.04,2.68.34.51.05,1.02.08,1.54.06-1.77-.67.51-.66-.14-1.16.72.09,1.66,1.03.76.87l-.11-.12c-.6.81,2.18.95,1.98,1.56,3.71.74,7.44,1.38,11.06,1.03l-.49-.66,1.22-.16c.34.12.52.49-.37.61.53.33,1.43-.59,1.42-.75,1.77,0-.52.95.01.88l.72-.18-.18-.06c.53-.39.51-.68,1.55-.95.69-.04.45.34.72.3.01.05.11.05.4-.09.51-.13,1.04-.24,1.55-.38-.26-.11-.53-.25-.79-.37.59-.43,1.38-.47.51-.81.64.28,2.05-.15,3.34-.7,1.25-.64,2.4-1.34,2.77-1.36.61-.87,1.38-1.39,2.4-1.99-.32.06-.82-.37.04-.86.51,1.31,1.77-.69,3.04-.48-.51-.02.07-.47.49-1.01.43-.53.8-1.03.07-.96.67-.51.38.33,1.06.1.27-.45.62-.85,1.02-1.24.37-.42.77-.82,1.2-1.23.43-.41.88-.83,1.31-1.28.39-.48.76-.98,1.09-1.53-.12-.13-.58.06-.49-.53l1.49-.61c.2-.47-.64-.92.34-1.4-.19.04-.48.09-.36-.23.78-.95,1.47-1.99,1.94-3.15.25-.57.49-1.15.72-1.73.23-.58.37-1.2.56-1.79.18-.6.37-1.2.57-1.79.17-.6.32-1.21.51-1.8.19-.6.41-1.19.66-1.78.21-.6.44-1.19.73-1.79-.43.62-.4.17-.34-.34-.13.32-.43-.07-.67-.03.3-.65.66-1.31.91-1.98-.64-.43.06-2.23-.56-2.47l.08.65c-.71-.87-1.71,1.12-2.66.91.4.48.08,1.07-.31,1.7-.36.63-.68,1.31-.18,2.15-.24.29-.27-.33-.51-.19.18.22.27.45.28.72-.01.27-.11.58-.3.97l-.08-.11c-.24,1.15-.45,1.97-.85,2.76-.41.79-.83,1.6-1.4,2.76h.52c-.29.49-.47.54-.69.73.4.87.68-1.43,1.18-.6-1.2.32-1.62,3.69-2.92,3.58-.42.74.6.04.18.79l-.37.05.22.38c-.33.47-.79.52-1.01.41.09-.1.13-.37.18-.51-.61.47-1.03,1.75-1.25,1.91l.62-.57c-.27.52-.6,1.04-.95,1.57-.33.54-.8.99-1.19,1.5-.42.49-.78,1.02-1.19,1.49-.41.47-.77.95-1.07,1.46l.28.04c-.96,1.55-1.19.76-2.54,2.13l.02-.09c-.17.4-.47.87-.94,1.11.25-.48-1.05.08-.69-.5-1.31,1.39-.57.79-1.18,2.19l-.43-.16c-.21.49-.16.66-.98,1.2.56-.65-.81-.22-.22-1-1.08.08-1.6.67-2.11,1-.5.37-.91.65-1.54.26-.49,1.3,1.82-.11,1.42.29.54.15-.42.99-1.07,1.14-.31.11-.68-.09-1.16-.26-.49-.2-1.07-.37-1.83-.15.15-.04.14-.12.3-.15-.64-.11-1.03.69-1.84.41-.28.67-.94.12-.92.92.48-.15.96-.26,1.42-.43-.76.37-1.41,1.39-2.88,1.18.09-.18.47-.45.74-.62-.43-.17-.75.29-1.2.1.03-.78,1.75-.46,2.52-1.19-.47-.26-1.55.84-1.25-.08-.23.59-.62.62-1.07.63-.45,0-.95-.11-1.46.35l.04-.48c-.16.08-.5.33-.82.33l.53-.65c-.84.57-1.65-.33-2.45-.13.85.05.94.18.92.37-.03.19-.18.43.19.58-2.19.56-1.21-1.27-3.54-1.21.31,0,1.16.36.64.56-.45-.09-1.01-.41-1.24-.69-1.55-.16.16.52-.54.7-.44-.66-.8.11-1.55.17l.09-.47c-1.68-.72-.7.86-2.21.07l.85-.46-.87-.06.32-.48c-.99.15-1.26,0-2.03-.51.08.4-.41.78-1.18.49-.41-.47.46-.31-.63-.67.37-.18.76-.43,1.06.16.11-.13.35-.19.45-.31-.41-.53-1.33-.59-1.7-.76.13.1.3.18.36.28-.6.01-1.16-.09-1.76-.13-.15-.28.1-.31.35-.35-.32-.11-.63-.02-1.08-.21.3-.28.47-.65,1.16-.5l-1.58-.33c0-.21-.42-.84-.17-.85-.29-.33-.82-.45-1.39-.61-.28-.08-.58-.16-.85-.29-.25-.15-.48-.33-.66-.57-.09.02-.23,0-.45-.1-.39-.37-.69-.8-1.06-1.18-.35-.4-.74-.79-1.39-1.04v-1c-.84-.59.06,1.3-1.34.31-.94-.77.16-.74.04-1.19-.62-.22-1.91-.53-2.09-1.77.3.23.4.51.66.73ZM269.57,596.73c.18.2.63.56.41.82-.61-.09-.43-.38-.41-.82ZM267.77,577.57c.11.22-.03.48-.29.76.02-.24.1-.5.29-.76ZM310.65,550.3s-.02,0-.04.01c-.51-.4-.33-.25.04-.01ZM311.77,550.96c.15-.01.17-.08.14-.16-.13.08-.4-.02-.69-.17.04.15.16.29.55.33ZM307.38,622.4l-.27-.06c.5-.28.38-.12.27.06Z"/>
      <path class="st2" d="M267.97,579.87c-.09.06-.18.06-.27.06.07.11.16.13.27-.06Z"/>
      <path class="st2" d="M281.19,612.81l.03.03s.06-.03.08-.05l-.11.02Z"/>
      <path class="st2" d="M293.13,552.87c-.24-.03-.39-.1-.49-.17.01.12.14.2.49.17Z"/>
      <path class="st2" d="M318.13,553.59l-.77-.36c.35.2.41.37.54.54.05-.1,0-.33.23-.19Z"/>
      <path class="st2" d="M321.47,560.36c.12.04.17.16.3.2l.14-.18c-.35-.33-.72-.44-.44-.02Z"/>
      <path class="st2" d="M317.83,555.32c-.18.36.28.56.76.85-.03-.02-.05-.04-.08-.06.48-.34-.1-.58-.68-.79Z"/>
      <path class="st2" d="M318.7,556.24c.15.09.29.2.41.32.19-.14-.13-.17-.41-.32Z"/>
      <path class="st2" d="M313.35,551.41c.2.22.38-.38.45-.16.5-.32-1.91-.29-.45.16Z"/>
      <path class="st2" d="M317.39,556.67l.15-.52c-.16.04-.32.09-.48.14.12.11.22.26.33.38Z"/>
      <path class="st2" d="M314.01,554.03c.23.18.48.33.69.54.03-.08.15-.06.28-.02-.43-.33-.92-.65-.97-.52Z"/>
      <path class="st2" d="M314.98,554.56c.23.16.46.3.63.31-.13-.08-.41-.24-.63-.31Z"/>
      <polygon class="st2" points="316.34 556.11 316.19 555.89 315.7 555.53 316.34 556.11"/>
      <path class="st2" d="M305.34,550.59h-.97c-.13.14.11.28.47.27.25-.08.61-.09.5-.27Z"/>
      <path class="st2" d="M307.7,552.66c-.21-.16-.19-.28-.28-.47l-.21.59.48-.12Z"/>
      <path class="st2" d="M305.11,552.09c-.13.15-1.38.27-.26.41.13-.17,1.03-.05.26-.41Z"/>
      <polygon class="st2" points="291.4 551.51 291.63 551.44 291.36 550.46 291.4 551.51"/>
      <path class="st2" d="M281.75,558.69c.98-.38-.17-.65.78-.92.07-.33-.78.22-.69-.09-.39.54-.71.66-.09,1.01Z"/>
      <path class="st2" d="M281.84,557.68c.06-.09.12-.19.18-.3-.12.15-.16.24-.18.3Z"/>
      <polygon class="st2" points="333.96 588.11 334.21 587.35 333.84 587.83 333.96 588.11"/>
      <path class="st2" d="M333.27,586.64l.66-.17-.57-.45c.02.17.06.5-.09.62Z"/>
      <path class="st2" d="M270.34,594.61h-.16c-.14.13-.12.28-.07.59l.24-.59Z"/>
      <polygon class="st2" points="273.14 602.97 273.08 602.83 272.71 603.37 273.14 602.97"/>
      <path class="st2" d="M278,608.52c-.17-.24-.49-.43-.67-.67.49.42.18,1.22.67.67Z"/>
    </g>
  </g>
</svg>