<?xml version="1.0" encoding="UTF-8"?>
<svg id="_レイヤー_1" data-name="レイヤー_1" xmlns="http://www.w3.org/2000/svg" version="1.1" xmlns:xlink="http://www.w3.org/1999/xlink" viewBox="0 0 595.28 841.89">
  <!-- Generator: Adobe Illustrator 29.4.0, SVG Export Plug-In . SVG Version: 2.1.0 Build 152)  -->
  <defs>
    <style>
      .st0, .st1, .st2, .st3, .st4, .st5, .st6, .st7, .st8, .st9 {
        stroke: #231815;
      }

      .st0, .st1, .st2, .st7 {
        fill: none;
      }

      .st0, .st1, .st7, .st8 {
        stroke-miterlimit: 10;
      }

      .st0, .st2, .st5, .st6 {
        stroke-width: 2px;
      }

      .st1 {
        stroke-width: 3px;
      }

      .st2, .st3, .st4, .st5, .st6, .st9 {
        stroke-linecap: round;
        stroke-linejoin: round;
      }

      .st3, .st5 {
        fill: #fff;
      }

      .st10 {
        fill: #231815;
      }

      .st4 {
        fill: #f7ebc3;
      }

      .st6 {
        fill: #f4e8c1;
      }

      .st11 {
        fill: #e6e6e6;
      }

      .st8 {
        fill: #faeec5;
      }

      .st9 {
        fill: url(#_名称未設定グラデーション_8);
      }
    </style>
    <linearGradient id="_名称未設定グラデーション_8" data-name="名称未設定グラデーション 8" x1="269.5" y1="248.38" x2="384.48" y2="280.15" gradientTransform="translate(126.12 -104.99) rotate(22.52)" gradientUnits="userSpaceOnUse">
      <stop offset=".04" stop-color="#f4e8c1"/>
      <stop offset=".4" stop-color="#fff"/>
      <stop offset="1" stop-color="#f4e8c1"/>
    </linearGradient>
  </defs>
  <ellipse class="st11" cx="297.64" cy="420.94" rx="247.5" ry="245.78"/>
  <ellipse class="st8" cx="326.69" cy="264.18" rx="67.34" ry="49.55" transform="translate(-76.28 145.3) rotate(-22.52)"/>
  <ellipse class="st9" cx="326.69" cy="264.18" rx="57.71" ry="42.47" transform="translate(-76.28 145.3) rotate(-22.52)"/>
  <path class="st4" d="M467.66,367.63c0,25.16-12.09,47.5-30.77,61.52-2.63,1.97-5.38,3.78-8.25,5.4-11.17,6.34-24.09,9.95-37.85,9.95-42.45,0-76.87-34.42-76.87-76.87s34.42-76.87,76.87-76.87,76.87,34.41,76.87,76.87Z"/>
  <circle class="st4" cx="390.79" cy="367.63" r="70.71"/>
  <path class="st2" d="M436.89,429.15c-2.63,1.97-5.38,3.78-8.25,5.4,1.52-2.7,4.56-4.74,8.25-5.4Z"/>
  <path class="st2" d="M449.85,443.24s-.03.05-.05.07c-.03-.02-.07-.05-.1-.07.05,0,.1-.01.15,0Z"/>
  <path class="st2" d="M449.85,443.24s-.03.05-.05.07c-.03-.02-.07-.05-.1-.07.05,0,.1-.01.15,0Z"/>
  <path class="st6" d="M464.4,467.58c0,2.22-3.18,4.02-7.1,4.02s-6.76-1.62-7.06-3.68c.41-.28.81-.57,1.2-.89,3.27-.23,6.21-1.4,8.47-3.18,2.63.58,4.49,2.03,4.49,3.73Z"/>
  <path class="st6" d="M451.44,467.03c-.39.32-.79.61-1.2.89-4.27,2.93-10.12,4.74-16.59,4.74-13.04,0-23.61-7.35-23.61-16.41,0-7.66,7.56-14.1,17.78-15.9.15.6.37,1.18.66,1.73-4.85,2.46-8.06,6.75-8.06,11.63,0,7.66,7.91,13.87,17.68,13.87,2.59,0,5.05-.43,7.26-1.22,1.51.47,3.15.72,4.85.72h.06c.39,0,.79-.02,1.17-.05Z"/>
  <path class="st2" d="M445.36,466.36c-2.21.79-4.67,1.22-7.26,1.22-9.77,0-17.68-6.21-17.68-13.87,0-4.88,3.21-9.17,8.06-11.63,1.69,3.33,5.66,5.73,10.36,5.94-1.77,1.99-2.82,4.46-2.82,7.14,0,5.15,3.89,9.54,9.34,11.2Z"/>
  <path class="st6" d="M464.4,455.16c0,.52-.04,1.02-.12,1.52-.42,2.82-2.02,5.33-4.37,7.17-2.26,1.78-5.2,2.95-8.47,3.18-.38.03-.78.05-1.17.05h-.06c-1.7,0-3.34-.25-4.85-.72-5.45-1.66-9.34-6.05-9.34-11.2,0-2.68,1.05-5.15,2.82-7.14.93-1.05,2.06-1.96,3.34-2.7.24-.14.49-.28.74-.4,1.59-.8,3.39-1.35,5.31-1.57.48-.06.97-.1,1.47-.11.03.02.07.05.1.07.02-.02.04-.05.05-.07.12-.01.24-.01.36-.01,7.58,0,13.78,5.01,14.17,11.31.01.2.02.41.02.62Z"/>
  <path class="st6" d="M451.44,438.47c0,1.74-.58,3.37-1.59,4.77-.05-.01-.1,0-.15,0-.5.01-.99.05-1.47.11-1.92.22-3.72.77-5.31,1.57-.25.12-.5.26-.74.4-1.28.74-2.41,1.65-3.34,2.7-4.7-.21-8.67-2.61-10.36-5.94-.29-.55-.51-1.13-.66-1.73-.15-.61-.23-1.24-.23-1.88,0-1.4.38-2.73,1.05-3.92,2.87-1.62,5.62-3.43,8.25-5.4.84-.15,1.72-.23,2.62-.23,1.67,0,3.25.27,4.69.76,1.41.49,2.68,1.18,3.75,2.04,2.16,1.72,3.49,4.11,3.49,6.75Z"/>
  <path class="st5" d="M445.36,466.36c-2.21.79-4.67,1.22-7.26,1.22-9.77,0-17.68-6.21-17.68-13.87,0-4.88,3.21-9.17,8.06-11.63,1.69,3.33,5.66,5.73,10.36,5.94-1.77,1.99-2.82,4.46-2.82,7.14,0,5.15,3.89,9.54,9.34,11.2Z"/>
  <path class="st2" d="M449.7,443.24c.05,0,.1-.01.15,0-.01.02-.03.05-.05.07-.03-.02-.07-.05-.1-.07Z"/>
  <path class="st6" d="M475.9,438.88c0,8.3-4.87,15.33-11.62,17.8.08-.5.12-1,.12-1.52,0-.21-.01-.42-.02-.62,3.49-2.56,5.76-6.69,5.76-11.35,0-7.77-6.3-14.06-14.06-14.06-3.03,0-5.84.96-8.13,2.59-1.07-.86-2.34-1.55-3.75-2.04,2.91-5.7,8.42-9.54,14.76-9.54,9.35,0,16.94,8.39,16.94,18.74Z"/>
  <path class="st2" d="M470.14,443.19c0,4.66-2.27,8.79-5.76,11.35-.39-6.3-6.59-11.31-14.17-11.31-.12,0-.24,0-.36.01,1.01-1.4,1.59-3.03,1.59-4.77,0-2.64-1.33-5.03-3.49-6.75,2.29-1.63,5.1-2.59,8.13-2.59,7.76,0,14.06,6.29,14.06,14.06Z"/>
  <path class="st2" d="M449.7,443.24c.05,0,.1-.01.15,0-.01.02-.03.05-.05.07-.03-.02-.07-.05-.1-.07Z"/>
  <path class="st5" d="M470.14,443.19c0,4.66-2.27,8.79-5.76,11.35-.39-6.3-6.59-11.31-14.17-11.31-.12,0-.24,0-.36.01,1.01-1.4,1.59-3.03,1.59-4.77,0-2.64-1.33-5.03-3.49-6.75,2.29-1.63,5.1-2.59,8.13-2.59,7.76,0,14.06,6.29,14.06,14.06Z"/>
  <ellipse class="st6" cx="417.98" cy="441.38" rx="5.4" ry="3.76"/>
  <ellipse class="st6" cx="410.83" cy="442.49" rx="5.03" ry="4.02"/>
  <ellipse class="st6" cx="403.47" cy="444.74" rx="5.93" ry="3.36"/>
  <ellipse class="st6" cx="399.82" cy="447.89" rx="5.24" ry="2.75"/>
  <ellipse class="st6" cx="395.48" cy="450.91" rx="5.66" ry="2.81"/>
  <ellipse class="st6" cx="394.47" cy="455.14" rx="5.93" ry="2.49"/>
  <ellipse class="st6" cx="395.48" cy="460.97" rx="5.66" ry="5.03"/>
  <ellipse class="st6" cx="395.59" cy="466.89" rx="5.77" ry="5.24"/>
  <ellipse class="st6" cx="390" cy="473.94" rx="5.59" ry="4.24"/>
  <ellipse class="st6" cx="386.32" cy="479.12" rx="5.19" ry="4.24"/>
  <ellipse class="st6" cx="381.98" cy="483.99" rx="5.72" ry="5.4"/>
  <ellipse class="st6" cx="378.17" cy="487.91" rx="5.4" ry="3.92"/>
  <ellipse class="st6" cx="369.8" cy="491.72" rx="6.46" ry="5.29"/>
  <ellipse class="st6" cx="360.75" cy="495.91" rx="5.66" ry="4.18"/>
  <ellipse class="st6" cx="352.33" cy="498.29" rx="6.25" ry="2.86"/>
  <ellipse class="st6" cx="346.24" cy="501.62" rx="6.19" ry="2.59"/>
  <ellipse class="st6" cx="337.14" cy="506.44" rx="7.78" ry="3.81"/>
  <ellipse class="st6" cx="331.42" cy="510.94" rx="5.45" ry="2.7"/>
  <ellipse class="st6" cx="326.6" cy="511.15" rx="4.34" ry="2.91"/>
  <ellipse class="st6" cx="322.09" cy="516.75" rx="6.71" ry="4.34"/>
  <ellipse class="st6" cx="315.66" cy="522.32" rx="6.28" ry="3.49"/>
  <ellipse class="st6" cx="309.45" cy="527.87" rx="6.92" ry="3.74"/>
  <ellipse class="st6" cx="305.11" cy="535.31" rx="7.59" ry="5.4"/>
  <ellipse class="st6" cx="302.67" cy="542.41" rx="6.71" ry="5.08"/>
  <ellipse class="st6" cx="299.6" cy="551.12" rx="5.96" ry="5.82"/>
  <ellipse class="st6" cx="294.56" cy="558.71" rx="4.38" ry="5.65"/>
  <ellipse class="st6" cx="289.79" cy="564.57" rx="4.91" ry="5.22"/>
  <ellipse class="st6" cx="284" cy="569.41" rx="5.89" ry="4.41"/>
  <ellipse class="st6" cx="278.64" cy="576.47" rx="7.87" ry="5.05"/>
  <ellipse class="st6" cx="268.01" cy="580.4" rx="9.39" ry="3.94"/>
  <ellipse class="st6" cx="259.79" cy="583.95" rx="8.65" ry="3.92"/>
  <ellipse class="st6" cx="250.09" cy="586.88" rx="7.62" ry="4.24"/>
  <ellipse class="st6" cx="244.47" cy="590.62" rx="6.67" ry="3.39"/>
  <ellipse class="st6" cx="237.03" cy="591.92" rx="7.13" ry="4.06"/>
  <ellipse class="st6" cx="234.8" cy="592.45" rx="6.81" ry="3.74"/>
  <ellipse class="st6" cx="224.71" cy="590.55" rx="8.79" ry="4.87"/>
  <ellipse class="st6" cx="219.38" cy="590.55" rx="7.69" ry="4.87"/>
  <ellipse class="st6" cx="211.93" cy="589.88" rx="8.22" ry="4.91"/>
  <ellipse class="st6" cx="209.31" cy="590.65" rx="8.21" ry="4.62"/>
  <ellipse class="st6" cx="200.81" cy="590.55" rx="8.26" ry="5.58"/>
  <ellipse class="st6" cx="187.41" cy="587.76" rx="6.93" ry="6.25"/>
  <ellipse class="st6" cx="179.21" cy="584.9" rx="8.26" ry="6.78"/>
  <ellipse class="st6" cx="172.76" cy="579.71" rx="6.25" ry="6.88"/>
  <ellipse class="st6" cx="165.82" cy="574.56" rx="6.94" ry="5.15"/>
  <ellipse class="st6" cx="155.6" cy="571.45" rx="7.31" ry="7.09"/>
  <ellipse class="st6" cx="152.43" cy="566.79" rx="4.13" ry="4.98"/>
  <ellipse class="st6" cx="152.29" cy="565.37" rx="1.72" ry="3.01"/>
  <ellipse class="st6" cx="148.72" cy="559.93" rx="7.84" ry="6.86"/>
  <ellipse class="st6" cx="145.2" cy="556.26" rx="5.37" ry="6.09"/>
  <ellipse class="st6" cx="141.52" cy="549.43" rx="3.39" ry="5.19"/>
  <circle class="st6" cx="141.24" cy="549.26" r="3.96"/>
  <ellipse class="st6" cx="142.16" cy="545.97" rx="6.56" ry="5.26"/>
  <ellipse class="st6" cx="143" cy="538.79" rx="5.72" ry="7.18"/>
  <ellipse class="st6" cx="141.52" cy="532.14" rx="7.2" ry="4.27"/>
  <ellipse class="st6" cx="143.08" cy="526.12" rx="7.49" ry="3.79"/>
  <ellipse class="st6" cx="141.94" cy="519.59" rx="6.35" ry="2.84"/>
  <ellipse class="st6" cx="147.4" cy="515.65" rx="8.21" ry="3.18"/>
  <ellipse class="st6" cx="151.41" cy="513.72" rx="6.21" ry="2.57"/>
  <ellipse class="st6" cx="151.19" cy="507.5" rx="8.11" ry="1.8"/>
  <ellipse class="st6" cx="158.61" cy="503.27" rx="7.21" ry="3.18"/>
  <ellipse class="st6" cx="166.03" cy="499.08" rx="6.72" ry="2.06"/>
  <ellipse class="st6" cx="168.94" cy="497.44" rx="11.54" ry="3.39"/>
  <ellipse class="st6" cx="173.79" cy="493.52" rx="7.97" ry="1.8"/>
  <ellipse class="st6" cx="396.96" cy="474.02" rx="5.45" ry="4.15"/>
  <ellipse class="st6" cx="396.71" cy="480.02" rx="5.07" ry="5.14"/>
  <ellipse class="st6" cx="396.11" cy="486.62" rx="6.3" ry="6.59"/>
  <ellipse class="st6" cx="391.83" cy="495.54" rx="5.51" ry="6.14"/>
  <circle class="st6" cx="387.54" cy="503.85" r="6.41"/>
  <ellipse class="st6" cx="382.61" cy="511.31" rx="7.94" ry="7.09"/>
  <ellipse class="st6" cx="376.16" cy="517.42" rx="8.26" ry="5.01"/>
  <ellipse class="st6" cx="367.69" cy="527.94" rx="9.11" ry="5.51"/>
  <ellipse class="st6" cx="354.82" cy="531.57" rx="9.9" ry="5.75"/>
  <ellipse class="st6" cx="371.13" cy="522.68" rx="7.78" ry="5.26"/>
  <ellipse class="st6" cx="347.22" cy="537.59" rx="10.09" ry="6.02"/>
  <ellipse class="st6" cx="333.27" cy="537.61" rx="9.85" ry="6"/>
  <ellipse class="st6" cx="326.81" cy="537.27" rx="6.35" ry="5.7"/>
  <ellipse class="st6" cx="315.77" cy="534.32" rx="9.08" ry="6.39"/>
  <ellipse class="st6" cx="311.2" cy="530.79" rx="6.09" ry="4.98"/>
  <ellipse class="st6" cx="303.34" cy="531.43" rx="7.38" ry="5.61"/>
  <ellipse class="st6" cx="294.52" cy="528.78" rx="8.01" ry="4.66"/>
  <circle class="st6" cx="290" cy="525.88" r="5.99"/>
  <ellipse class="st6" cx="282.45" cy="521.16" rx="6.04" ry="8.75"/>
  <ellipse class="st6" cx="277.9" cy="516.29" rx="6.14" ry="6.99"/>
  <ellipse class="st6" cx="270.7" cy="512.93" rx="7.41" ry="9.08"/>
  <ellipse class="st6" cx="266.46" cy="508.19" rx="4.45" ry="5.56"/>
  <circle class="st6" cx="261.86" cy="507.45" r="6.62"/>
  <ellipse class="st6" cx="259.47" cy="506.71" rx="6.35" ry="4.08"/>
  <ellipse class="st6" cx="251.44" cy="502.63" rx="6.97" ry="5.61"/>
  <ellipse class="st6" cx="247.09" cy="501.89" rx="8.15" ry="6.35"/>
  <ellipse class="st6" cx="239.29" cy="496.49" rx="5.79" ry="3.28"/>
  <ellipse class="st6" cx="233.64" cy="493.74" rx="7.41" ry="4.34"/>
  <ellipse class="st6" cx="222.94" cy="489.95" rx="8.58" ry="5.96"/>
  <ellipse class="st6" cx="225.1" cy="494.05" rx="9.18" ry="6.14"/>
  <ellipse class="st6" cx="206.99" cy="488.97" rx="5.89" ry="3.81"/>
  <ellipse class="st6" cx="209.85" cy="490.53" rx="10.31" ry="5.37"/>
  <ellipse class="st6" cx="200.76" cy="491.3" rx="6.41" ry="3.39"/>
  <ellipse class="st6" cx="199.65" cy="492.74" rx="7.94" ry="2.79"/>
  <ellipse class="st6" cx="194.5" cy="492.66" rx=".46" ry=".09"/>
  <ellipse class="st6" cx="187.16" cy="492.89" rx="9" ry="4.98"/>
  <ellipse class="st6" cx="190.65" cy="489.82" rx="5.72" ry="1.91"/>
  <circle class="st3" cx="390.79" cy="367.63" r="60.64"/>
  <path class="st10" d="M392.65,413.61v9.34h-.98v-9.34h.98Z"/>
  <path class="st10" d="M367.77,409l-3.77,8.55-.89-.39,3.77-8.55.89.39ZM371.05,410.45l-3.77,8.55-.89-.39,3.77-8.55.89.39Z"/>
  <path class="st10" d="M349.13,391.16l-8.32,4.26-.43-.84,8.31-4.26.43.84ZM350.46,393.76l-8.31,4.26-.43-.84,8.31-4.26.43.84ZM351.8,396.36l-8.32,4.26-.43-.84,8.32-4.26.43.84Z"/>
  <path class="st10" d="M344.32,370.38l-8.91,4.04-.13-1.02,4.73-2.08c1.31-.56,2.3-.97,3.25-1.37v-.02c-1.04-.16-2.14-.37-3.48-.63l-5.14-1.02-.13-1.02,9.67,2.09.13,1.04ZM335.54,375.46l9.27-1.15.12.94-9.27,1.15-.12-.94Z"/>
  <path class="st10" d="M349.33,348.68l-9.89-.02.36-1.02,5.26.08c1.46.03,2.57.07,3.61.1v-.02c-.84-.63-1.75-1.36-2.82-2.27l-4.13-3.39.35-1.01,7.63,6.49-.37,1.05Z"/>
  <path class="st10" d="M361.69,332.38l-7.85-5.86.85-.61,4.1,3.15c1.12.88,1.96,1.54,2.76,2.2h.02c-.36-1-.7-2.07-1.11-3.37l-1.58-5,.83-.6,2.84,9.48-.84.61ZM361.31,321.12l5.47,7.57-.77.56-5.47-7.57.77-.56Z"/>
  <path class="st10" d="M382.22,323.63l-2.89-9.34h.96l1.49,4.92c.37,1.28.68,2.34.95,3.32h.02c.23-.97.48-1.97.85-3.32l1.29-4.92h.95l-2.64,9.34h-.98ZM387.34,314.28v9.34h-.91v-9.34h.91ZM389.71,314.28v9.34h-.9v-9.34h.9Z"/>
  <path class="st10" d="M405.93,328.42l3.29-9.1.74.51-1.78,4.76c-.46,1.22-.85,2.22-1.22,3.15h.02c.74-.68,1.44-1.35,2.47-2.27l3.73-3.39.73.51-7.24,6.33-.74-.52ZM414.86,323.26l-5.36,7.66-.64-.45,5.36-7.66.64.45ZM416.41,324.35l-5.36,7.66-.64-.45,5.36-7.66.64.45ZM417.98,325.45l-5.36,7.65-.65-.45,5.36-7.65.65.45Z"/>
  <path class="st10" d="M434.65,340.9l-8.2,4.48-.45-.82,8.2-4.48.45.82ZM429.85,351.59l1.28-2.13c.58-.97.93-1.6,1.24-2.06v-.02c-.59.02-1.19.02-2.35.02h-2.46s-.51-.94-.51-.94l5.57.21,2.73-4.5.52.95-1.47,2.32c-.4.64-.7,1.08-.98,1.51h0c.53,0,1.02-.03,1.78-.02h2.75s.52.95.52.95l-5.28-.21-2.8,4.91-.53-.97Z"/>
  <path class="st10" d="M434.7,369.11l2.12-1.55c.96-.69,1.57-1.1,2.05-1.41v-.02c-.53-.29-1.07-.6-2.1-1.24l-2.2-1.35-.03-1.14,4.86,3.15,4.49-3.11.03,1.16-2.39,1.58c-.65.45-1.12.76-1.57,1.03v.04c.49.25.94.51,1.62.92l2.46,1.48.03,1.15-4.6-3-4.73,3.49-.03-1.18Z"/>
  <path class="st10" d="M434.31,396.68l-7.03-6.15.62-.71,7.03,6.15-.62.71ZM429.43,388.07l2.45.46c1.1.22,1.82.33,2.36.46h0c-.21-.55-.42-1.11-.82-2.21l-.84-2.32.7-.8,1.72,5.3,5.17,1.02-.72.82-2.67-.59c-.74-.16-1.25-.28-1.75-.4l-.02.02c.2.48.39.93.64,1.66l.95,2.58-.7.8-1.62-5.03-5.57-.94.72-.82Z"/>
  <path class="st10" d="M413.95,415.17l-5.92-7.23.7-.57,5.92,7.23-.7.57ZM415.76,413.68l-5.92-7.23.7-.57,5.92,7.23-.7.57ZM411.93,404.74l2.21.93c1,.41,1.65.68,2.13.92h.02c-.15-.56-.28-1.13-.54-2.22l-.55-2.3.82-.67,1.04,5.33,4.72,2.02-.81.66-2.42-1.1c-.66-.3-1.12-.52-1.56-.73l-.02.02c.14.47.26.94.43,1.65l.62,2.59-.82.67-.97-5.05-5.12-2.03.83-.68Z"/>
  <ellipse class="st7" cx="388.31" cy="378.44" rx="3.51" ry="5.51"/>
  <ellipse class="st7" cx="388.31" cy="389.32" rx="2.29" ry="4.16"/>
  <line class="st1" x1="388.31" y1="383.95" x2="388.31" y2="385.16"/>
  <line class="st7" x1="388.31" y1="393.47" x2="388.31" y2="395.8"/>
  <line class="st0" x1="388.31" y1="372.93" x2="388.31" y2="369.77"/>
  <path class="st7" d="M404.34,372.27c4.54,2.21,6.83,5.33,5.12,6.98s-6.78,1.2-11.32-1.01-6.83-5.33-5.12-6.98,6.78-1.2,11.32,1.01Z"/>
  <path class="st7" d="M419.48,381.21c3.42,1.67,5.29,3.89,4.18,4.96s-4.79.6-8.22-1.07c-3.42-1.67-5.29-3.89-4.18-4.96s4.79-.6,8.22,1.07Z"/>
  <line class="st1" x1="409.45" y1="379.26" x2="411.26" y2="380.14"/>
  <line class="st7" x1="423.66" y1="386.17" x2="427.13" y2="387.85"/>
  <line class="st0" x1="393.02" y1="371.26" x2="388.31" y2="368.97"/>
  <circle class="st10" cx="388.19" cy="368.44" r="4.83"/>
  <line class="st2" x1="386.02" y1="364.12" x2="363.66" y2="326.67"/>
</svg>